<svg width="325" height="264" viewBox="0 0 325 264" fill="none" xmlns="http://www.w3.org/2000/svg">
<rect width="325" height="264" rx="18" fill="#23FF53"/>
<path d="M0 18C0 8.05887 8.05887 0 18 0H307C316.941 0 325 8.05887 325 18V64H0V18Z" fill="#23FF53"/>
<path d="M34.1016 28.094C33.5076 26.996 32.7606 26.213 31.8606 25.745C30.9606 25.259 29.9886 25.016 28.9446 25.016C27.8106 25.016 26.7936 25.295 25.8936 25.853C24.9936 26.411 24.2736 27.185 23.7336 28.175C23.2116 29.147 22.9506 30.272 22.9506 31.55C22.9506 32.846 23.2026 33.989 23.7066 34.979C24.2286 35.951 24.9396 36.716 25.8396 37.274C26.7576 37.814 27.8016 38.084 28.9716 38.084C29.7456 38.084 30.4656 37.949 31.1316 37.679C31.8156 37.409 32.4096 37.04 32.9136 36.572C33.4356 36.104 33.8586 35.555 34.1826 34.925V33.359H29.0256V30.443H37.7466V35.384C37.3146 36.428 36.6756 37.4 35.8296 38.3C34.9836 39.182 33.9666 39.884 32.7786 40.406C31.6086 40.928 30.3036 41.189 28.8636 41.189C27.4776 41.189 26.1996 40.955 25.0296 40.487C23.8776 40.019 22.8606 39.362 21.9786 38.516C21.1146 37.652 20.4396 36.635 19.9536 35.465C19.4676 34.277 19.2246 32.972 19.2246 31.55C19.2246 30.146 19.4676 28.859 19.9536 27.689C20.4396 26.501 21.1146 25.475 21.9786 24.611C22.8426 23.747 23.8596 23.081 25.0296 22.613C26.1996 22.145 27.4686 21.911 28.8366 21.911C30.0966 21.911 31.2936 22.118 32.4276 22.532C33.5616 22.928 34.5606 23.513 35.4246 24.287C36.2886 25.043 36.9546 25.97 37.4226 27.068L34.1016 28.094ZM45.1383 41.189C43.7883 41.189 42.6003 40.892 41.5743 40.298C40.5483 39.704 39.7473 38.876 39.1713 37.814C38.6133 36.752 38.3343 35.528 38.3343 34.142C38.3343 32.81 38.6133 31.631 39.1713 30.605C39.7293 29.579 40.5033 28.778 41.4933 28.202C42.5013 27.608 43.6443 27.311 44.9223 27.311C46.2183 27.311 47.3613 27.59 48.3513 28.148C49.3413 28.706 50.1063 29.489 50.6463 30.497C51.2043 31.487 51.4833 32.648 51.4833 33.98C51.4833 34.178 51.4653 34.403 51.4293 34.655C51.4113 34.889 51.3843 35.141 51.3483 35.411H42.0603C42.1323 35.987 42.3123 36.482 42.6003 36.896C42.9063 37.292 43.2753 37.607 43.7073 37.841C44.1573 38.057 44.6613 38.165 45.2193 38.165C45.8853 38.165 46.4793 38.03 47.0013 37.76C47.5413 37.472 47.9283 37.103 48.1623 36.653L51.2403 37.571C50.7003 38.723 49.8903 39.614 48.8103 40.244C47.7483 40.874 46.5243 41.189 45.1383 41.189ZM47.7033 32.9C47.6853 32.396 47.5503 31.946 47.2983 31.55C47.0463 31.136 46.7133 30.821 46.2993 30.605C45.8853 30.371 45.4263 30.254 44.9223 30.254C44.4723 30.254 44.0493 30.371 43.6533 30.605C43.2573 30.839 42.9153 31.154 42.6273 31.55C42.3573 31.928 42.1773 32.378 42.0873 32.9H47.7033ZM52.6326 27.5H55.7646L56.0076 28.877C56.4396 28.391 56.9616 28.013 57.5736 27.743C58.2036 27.455 58.8786 27.311 59.5986 27.311C60.6606 27.311 61.5606 27.536 62.2986 27.986C63.0546 28.436 63.6306 29.093 64.0266 29.957C64.4406 30.803 64.6476 31.856 64.6476 33.116V41H61.1646V33.575C61.1646 32.531 60.9576 31.748 60.5436 31.226C60.1296 30.704 59.5086 30.443 58.6806 30.443C57.8346 30.443 57.1866 30.713 56.7366 31.253C56.3046 31.775 56.0886 32.558 56.0886 33.602V41H52.6326V27.5ZM72.4114 41.189C71.0614 41.189 69.8734 40.892 68.8474 40.298C67.8214 39.704 67.0204 38.876 66.4444 37.814C65.8864 36.752 65.6074 35.528 65.6074 34.142C65.6074 32.81 65.8864 31.631 66.4444 30.605C67.0024 29.579 67.7764 28.778 68.7664 28.202C69.7744 27.608 70.9174 27.311 72.1954 27.311C73.4914 27.311 74.6344 27.59 75.6244 28.148C76.6144 28.706 77.3794 29.489 77.9194 30.497C78.4774 31.487 78.7564 32.648 78.7564 33.98C78.7564 34.178 78.7384 34.403 78.7024 34.655C78.6844 34.889 78.6574 35.141 78.6214 35.411H69.3334C69.4054 35.987 69.5854 36.482 69.8734 36.896C70.1794 37.292 70.5484 37.607 70.9804 37.841C71.4304 38.057 71.9344 38.165 72.4924 38.165C73.1584 38.165 73.7524 38.03 74.2744 37.76C74.8144 37.472 75.2014 37.103 75.4354 36.653L78.5134 37.571C77.9734 38.723 77.1634 39.614 76.0834 40.244C75.0214 40.874 73.7974 41.189 72.4114 41.189ZM74.9764 32.9C74.9584 32.396 74.8234 31.946 74.5714 31.55C74.3194 31.136 73.9864 30.821 73.5724 30.605C73.1584 30.371 72.6994 30.254 72.1954 30.254C71.7454 30.254 71.3224 30.371 70.9264 30.605C70.5304 30.839 70.1884 31.154 69.9004 31.55C69.6304 31.928 69.4504 32.378 69.3604 32.9H74.9764ZM79.9058 27.5H83.0378L83.2808 29.228C83.6588 28.76 84.0818 28.382 84.5498 28.094C85.0358 27.788 85.5668 27.581 86.1428 27.473C86.7188 27.347 87.3218 27.356 87.9518 27.5V30.74C87.4658 30.578 86.9528 30.533 86.4128 30.605C85.8908 30.677 85.3958 30.866 84.9278 31.172C84.4778 31.478 84.0998 31.919 83.7938 32.495C83.5058 33.053 83.3618 33.764 83.3618 34.628V41H79.9058V27.5ZM96.6156 41L96.3456 39.353C95.8956 39.911 95.3826 40.352 94.8066 40.676C94.2486 41 93.4926 41.162 92.5386 41.162C91.6386 41.162 90.8466 41.009 90.1626 40.703C89.4966 40.379 88.9746 39.938 88.5966 39.38C88.2186 38.804 88.0296 38.129 88.0296 37.355C88.0296 36.221 88.4346 35.285 89.2446 34.547C90.0726 33.791 91.3146 33.314 92.9706 33.116L96.3456 32.738V31.793C96.3456 31.415 96.1746 31.064 95.8326 30.74C95.4906 30.416 94.9506 30.254 94.2126 30.254C93.5646 30.254 92.9976 30.416 92.5116 30.74C92.0436 31.046 91.7286 31.514 91.5666 32.144L88.5966 31.064C88.9566 29.858 89.6406 28.931 90.6486 28.283C91.6566 27.635 92.8986 27.311 94.3746 27.311C96.1746 27.311 97.5246 27.761 98.4246 28.661C99.3426 29.543 99.8016 30.713 99.8016 32.171V41H96.6156ZM96.3456 35.141L93.4296 35.519C92.8356 35.591 92.3856 35.771 92.0796 36.059C91.7736 36.329 91.6206 36.662 91.6206 37.058C91.6206 37.436 91.7736 37.76 92.0796 38.03C92.3856 38.282 92.8176 38.408 93.3756 38.408C94.0056 38.408 94.5366 38.291 94.9686 38.057C95.4186 37.823 95.7606 37.481 95.9946 37.031C96.2286 36.581 96.3456 36.023 96.3456 35.357V35.141ZM102.456 27.5V23.72H105.966V27.5H108.936V30.551H105.966V36.032C105.966 36.734 106.11 37.229 106.398 37.517C106.704 37.805 107.082 37.958 107.532 37.976C108 37.994 108.468 37.967 108.936 37.895V40.865C108.108 41.045 107.298 41.099 106.506 41.027C105.732 40.955 105.039 40.748 104.427 40.406C103.815 40.046 103.329 39.506 102.969 38.786C102.627 38.066 102.456 37.148 102.456 36.032V30.551H100.539V27.5H102.456ZM116.042 41.189C114.692 41.189 113.504 40.892 112.478 40.298C111.452 39.704 110.651 38.876 110.075 37.814C109.517 36.752 109.238 35.528 109.238 34.142C109.238 32.81 109.517 31.631 110.075 30.605C110.633 29.579 111.407 28.778 112.397 28.202C113.405 27.608 114.548 27.311 115.826 27.311C117.122 27.311 118.265 27.59 119.255 28.148C120.245 28.706 121.01 29.489 121.55 30.497C122.108 31.487 122.387 32.648 122.387 33.98C122.387 34.178 122.369 34.403 122.333 34.655C122.315 34.889 122.288 35.141 122.252 35.411H112.964C113.036 35.987 113.216 36.482 113.504 36.896C113.81 37.292 114.179 37.607 114.611 37.841C115.061 38.057 115.565 38.165 116.123 38.165C116.789 38.165 117.383 38.03 117.905 37.76C118.445 37.472 118.832 37.103 119.066 36.653L122.144 37.571C121.604 38.723 120.794 39.614 119.714 40.244C118.652 40.874 117.428 41.189 116.042 41.189ZM118.607 32.9C118.589 32.396 118.454 31.946 118.202 31.55C117.95 31.136 117.617 30.821 117.203 30.605C116.789 30.371 116.33 30.254 115.826 30.254C115.376 30.254 114.953 30.371 114.557 30.605C114.161 30.839 113.819 31.154 113.531 31.55C113.261 31.928 113.081 32.378 112.991 32.9H118.607ZM133.337 29.525L132.905 29.579V21.56H136.361V41H133.229L133.013 39.326C132.581 39.83 132.005 40.271 131.285 40.649C130.583 41.009 129.764 41.189 128.828 41.189C127.658 41.189 126.623 40.901 125.723 40.325C124.823 39.749 124.121 38.948 123.617 37.922C123.113 36.878 122.861 35.654 122.861 34.25C122.861 32.846 123.113 31.622 123.617 30.578C124.121 29.534 124.823 28.733 125.723 28.175C126.623 27.599 127.658 27.311 128.828 27.311C129.89 27.311 130.799 27.527 131.555 27.959C132.329 28.391 132.923 28.913 133.337 29.525ZM126.587 34.25C126.587 35.384 126.875 36.302 127.451 37.004C128.027 37.688 128.783 38.03 129.719 38.03C130.295 38.03 130.817 37.886 131.285 37.598C131.771 37.292 132.158 36.86 132.446 36.302C132.752 35.744 132.905 35.06 132.905 34.25C132.905 33.44 132.752 32.756 132.446 32.198C132.158 31.64 131.771 31.217 131.285 30.929C130.817 30.623 130.295 30.47 129.719 30.47C128.783 30.47 128.027 30.821 127.451 31.523C126.875 32.207 126.587 33.116 126.587 34.25ZM152.1 30.74C152.82 30.74 153.414 30.632 153.882 30.416C154.35 30.182 154.692 29.858 154.908 29.444C155.142 29.012 155.259 28.508 155.259 27.932C155.259 27.05 154.998 26.366 154.476 25.88C153.972 25.394 153.18 25.151 152.1 25.151H148.077V30.74H152.1ZM158.985 27.932C158.985 28.634 158.859 29.336 158.607 30.038C158.355 30.722 157.959 31.352 157.419 31.928C156.879 32.486 156.177 32.936 155.313 33.278C154.467 33.62 153.432 33.791 152.208 33.791H148.077V41H144.432V22.1H152.208C153.738 22.1 154.998 22.37 155.988 22.91C156.996 23.432 157.743 24.143 158.229 25.043C158.733 25.925 158.985 26.888 158.985 27.932ZM160.082 21.56H163.538V41H160.082V21.56ZM173.311 41L173.041 39.353C172.591 39.911 172.078 40.352 171.502 40.676C170.944 41 170.188 41.162 169.234 41.162C168.334 41.162 167.542 41.009 166.858 40.703C166.192 40.379 165.67 39.938 165.292 39.38C164.914 38.804 164.725 38.129 164.725 37.355C164.725 36.221 165.13 35.285 165.94 34.547C166.768 33.791 168.01 33.314 169.666 33.116L173.041 32.738V31.793C173.041 31.415 172.87 31.064 172.528 30.74C172.186 30.416 171.646 30.254 170.908 30.254C170.26 30.254 169.693 30.416 169.207 30.74C168.739 31.046 168.424 31.514 168.262 32.144L165.292 31.064C165.652 29.858 166.336 28.931 167.344 28.283C168.352 27.635 169.594 27.311 171.07 27.311C172.87 27.311 174.22 27.761 175.12 28.661C176.038 29.543 176.497 30.713 176.497 32.171V41H173.311ZM173.041 35.141L170.125 35.519C169.531 35.591 169.081 35.771 168.775 36.059C168.469 36.329 168.316 36.662 168.316 37.058C168.316 37.436 168.469 37.76 168.775 38.03C169.081 38.282 169.513 38.408 170.071 38.408C170.701 38.408 171.232 38.291 171.664 38.057C172.114 37.823 172.456 37.481 172.69 37.031C172.924 36.581 173.041 36.023 173.041 35.357V35.141ZM186.966 27.5H190.665L182.7 46.4H179.217L181.755 40.514L176.436 27.5H180.297L183.591 36.383L186.966 27.5ZM191.249 21.56H194.705V41H191.249V21.56ZM197 27.5H200.456V41H197V27.5ZM198.755 25.772C198.107 25.772 197.576 25.574 197.162 25.178C196.748 24.764 196.541 24.26 196.541 23.666C196.541 23.072 196.748 22.577 197.162 22.181C197.576 21.767 198.107 21.56 198.755 21.56C199.367 21.56 199.88 21.767 200.294 22.181C200.726 22.577 200.942 23.072 200.942 23.666C200.942 24.26 200.726 24.764 200.294 25.178C199.88 25.574 199.367 25.772 198.755 25.772ZM205.185 36.599C205.293 37.049 205.473 37.391 205.725 37.625C205.995 37.859 206.292 38.03 206.616 38.138C206.958 38.228 207.3 38.273 207.642 38.273C208.272 38.273 208.767 38.156 209.127 37.922C209.487 37.67 209.667 37.355 209.667 36.977C209.667 36.653 209.541 36.401 209.289 36.221C209.037 36.023 208.713 35.879 208.317 35.789C207.921 35.681 207.516 35.573 207.102 35.465C206.616 35.339 206.094 35.204 205.536 35.06C204.996 34.898 204.483 34.673 203.997 34.385C203.511 34.097 203.106 33.728 202.782 33.278C202.458 32.81 202.296 32.225 202.296 31.523C202.296 30.695 202.521 29.966 202.971 29.336C203.439 28.706 204.078 28.211 204.888 27.851C205.716 27.491 206.67 27.311 207.75 27.311C209.028 27.311 210.108 27.581 210.99 28.121C211.872 28.661 212.511 29.435 212.907 30.443L209.856 31.307C209.766 31.055 209.613 30.848 209.397 30.686C209.181 30.524 208.92 30.407 208.614 30.335C208.326 30.263 208.029 30.227 207.723 30.227C207.201 30.227 206.769 30.335 206.427 30.551C206.085 30.749 205.914 31.028 205.914 31.388C205.914 31.604 205.977 31.784 206.103 31.928C206.229 32.054 206.4 32.162 206.616 32.252C206.85 32.342 207.111 32.423 207.399 32.495C207.705 32.567 208.038 32.648 208.398 32.738C208.956 32.882 209.514 33.053 210.072 33.251C210.648 33.431 211.17 33.665 211.638 33.953C212.124 34.241 212.511 34.628 212.799 35.114C213.087 35.6 213.249 36.212 213.285 36.95C213.285 37.742 213.06 38.462 212.61 39.11C212.16 39.74 211.512 40.244 210.666 40.622C209.82 41 208.794 41.189 207.588 41.189C206.184 41.189 204.987 40.892 203.997 40.298C203.025 39.704 202.386 38.777 202.08 37.517L205.185 36.599ZM215.425 27.5V23.72H218.935V27.5H221.905V30.551H218.935V36.032C218.935 36.734 219.079 37.229 219.367 37.517C219.673 37.805 220.051 37.958 220.501 37.976C220.969 37.994 221.437 37.967 221.905 37.895V40.865C221.077 41.045 220.267 41.099 219.475 41.027C218.701 40.955 218.008 40.748 217.396 40.406C216.784 40.046 216.298 39.506 215.938 38.786C215.596 38.066 215.425 37.148 215.425 36.032V30.551H213.508V27.5H215.425Z" fill="#050013"/>
<path d="M19 64L306 64" stroke="#050013" stroke-width="3" stroke-linecap="round"/>
<g clip-path="url(#clip0_598_624)">
<rect x="7.5" y="74" width="310" height="54" rx="18" fill="#23FF53"/>
<path d="M23.981 111H20.336V92.1H24.494L30.515 106.248L36.536 92.1H40.694V111H37.049V98.796L31.946 111H29.084L23.981 98.796V111ZM54.5625 111H51.4035L51.1605 109.596C50.7285 110.1 50.1975 110.496 49.5675 110.784C48.9555 111.054 48.2985 111.189 47.5965 111.189C46.5525 111.189 45.6525 110.964 44.8965 110.514C44.1405 110.064 43.5555 109.416 43.1415 108.57C42.7275 107.706 42.5205 106.644 42.5205 105.384V97.5H46.0035V104.952C46.0035 105.978 46.2015 106.761 46.5975 107.301C47.0115 107.823 47.6415 108.084 48.4875 108.084C49.3155 108.084 49.9545 107.814 50.4045 107.274C50.8725 106.734 51.1065 105.951 51.1065 104.925V97.5H54.5625V111ZM58.8156 106.599C58.9236 107.049 59.1036 107.391 59.3556 107.625C59.6256 107.859 59.9226 108.03 60.2466 108.138C60.5886 108.228 60.9306 108.273 61.2726 108.273C61.9026 108.273 62.3976 108.156 62.7576 107.922C63.1176 107.67 63.2976 107.355 63.2976 106.977C63.2976 106.653 63.1716 106.401 62.9196 106.221C62.6676 106.023 62.3436 105.879 61.9476 105.789C61.5516 105.681 61.1466 105.573 60.7326 105.465C60.2466 105.339 59.7246 105.204 59.1666 105.06C58.6266 104.898 58.1136 104.673 57.6276 104.385C57.1416 104.097 56.7366 103.728 56.4126 103.278C56.0886 102.81 55.9266 102.225 55.9266 101.523C55.9266 100.695 56.1516 99.966 56.6016 99.336C57.0696 98.706 57.7086 98.211 58.5186 97.851C59.3466 97.491 60.3006 97.311 61.3806 97.311C62.6586 97.311 63.7386 97.581 64.6206 98.121C65.5026 98.661 66.1416 99.435 66.5376 100.443L63.4866 101.307C63.3966 101.055 63.2436 100.848 63.0276 100.686C62.8116 100.524 62.5506 100.407 62.2446 100.335C61.9566 100.263 61.6596 100.227 61.3536 100.227C60.8316 100.227 60.3996 100.335 60.0576 100.551C59.7156 100.749 59.5446 101.028 59.5446 101.388C59.5446 101.604 59.6076 101.784 59.7336 101.928C59.8596 102.054 60.0306 102.162 60.2466 102.252C60.4806 102.342 60.7416 102.423 61.0296 102.495C61.3356 102.567 61.6686 102.648 62.0286 102.738C62.5866 102.882 63.1446 103.053 63.7026 103.251C64.2786 103.431 64.8006 103.665 65.2686 103.953C65.7546 104.241 66.1416 104.628 66.4296 105.114C66.7176 105.6 66.8796 106.212 66.9156 106.95C66.9156 107.742 66.6906 108.462 66.2406 109.11C65.7906 109.74 65.1426 110.244 64.2966 110.622C63.4506 111 62.4246 111.189 61.2186 111.189C59.8146 111.189 58.6176 110.892 57.6276 110.298C56.6556 109.704 56.0166 108.777 55.7106 107.517L58.8156 106.599ZM68.5432 97.5H71.9992V111H68.5432V97.5ZM70.2982 95.772C69.6502 95.772 69.1192 95.574 68.7052 95.178C68.2912 94.764 68.0842 94.26 68.0842 93.666C68.0842 93.072 68.2912 92.577 68.7052 92.181C69.1192 91.767 69.6502 91.56 70.2982 91.56C70.9102 91.56 71.4232 91.767 71.8372 92.181C72.2692 92.577 72.4852 93.072 72.4852 93.666C72.4852 94.26 72.2692 94.764 71.8372 95.178C71.4232 95.574 70.9102 95.772 70.2982 95.772ZM80.2385 111.189C78.9245 111.189 77.7725 110.901 76.7825 110.325C75.7925 109.749 75.0185 108.948 74.4605 107.922C73.9025 106.878 73.6235 105.672 73.6235 104.304C73.6235 102.918 73.9025 101.703 74.4605 100.659C75.0185 99.615 75.8015 98.796 76.8095 98.202C77.8175 97.608 78.9785 97.311 80.2925 97.311C81.7145 97.311 82.9745 97.662 84.0725 98.364C85.1885 99.066 85.9715 100.011 86.4215 101.199L83.2085 102.117C82.9925 101.595 82.6325 101.181 82.1285 100.875C81.6425 100.569 81.0845 100.416 80.4545 100.416C79.8245 100.416 79.2665 100.578 78.7805 100.902C78.3125 101.226 77.9435 101.676 77.6735 102.252C77.4215 102.828 77.2955 103.503 77.2955 104.277C77.2955 105.447 77.5835 106.374 78.1595 107.058C78.7355 107.742 79.5095 108.084 80.4815 108.084C81.0935 108.084 81.6515 107.94 82.1555 107.652C82.6595 107.346 83.0375 106.932 83.2895 106.41L86.4755 107.328C85.9895 108.498 85.1795 109.434 84.0455 110.136C82.9295 110.838 81.6605 111.189 80.2385 111.189ZM95.5502 95.151H92.9582V92.1H99.1952V111H95.5502V95.151ZM113.088 101.928H124.482V105.006H113.088V101.928ZM143.157 97.932C143.157 97.086 142.896 96.411 142.374 95.907C141.87 95.403 141.078 95.151 139.998 95.151H135.975V100.74H139.998C140.718 100.74 141.312 100.632 141.78 100.416C142.248 100.182 142.59 99.858 142.806 99.444C143.04 99.012 143.157 98.508 143.157 97.932ZM140.106 92.1C141.636 92.1 142.896 92.37 143.886 92.91C144.894 93.432 145.641 94.143 146.127 95.043C146.631 95.925 146.883 96.888 146.883 97.932C146.883 98.634 146.757 99.336 146.505 100.038C146.253 100.722 145.857 101.352 145.317 101.928C144.777 102.486 144.075 102.936 143.211 103.278C142.365 103.62 141.33 103.791 140.106 103.791H135.975V111H132.33V92.1H140.106ZM142.158 102.576L147.261 111H143.184L138.297 102.576H142.158ZM154.531 111.189C153.217 111.189 152.047 110.91 151.021 110.352C149.995 109.776 149.185 108.975 148.591 107.949C148.015 106.905 147.727 105.681 147.727 104.277C147.727 102.855 148.024 101.622 148.618 100.578C149.23 99.534 150.058 98.733 151.102 98.175C152.146 97.599 153.316 97.311 154.612 97.311C155.908 97.311 157.078 97.599 158.122 98.175C159.166 98.733 159.994 99.534 160.606 100.578C161.218 101.604 161.524 102.819 161.524 104.223C161.524 105.645 161.209 106.878 160.579 107.922C159.967 108.966 159.13 109.776 158.068 110.352C157.024 110.91 155.845 111.189 154.531 111.189ZM154.504 108.084C155.062 108.084 155.593 107.949 156.097 107.679C156.601 107.391 157.015 106.968 157.339 106.41C157.663 105.834 157.825 105.105 157.825 104.223C157.825 103.377 157.672 102.675 157.366 102.117C157.06 101.541 156.655 101.118 156.151 100.848C155.665 100.56 155.134 100.416 154.558 100.416C154 100.416 153.478 100.56 152.992 100.848C152.524 101.118 152.146 101.541 151.858 102.117C151.588 102.675 151.453 103.395 151.453 104.277C151.453 105.123 151.588 105.834 151.858 106.41C152.128 106.968 152.497 107.391 152.965 107.679C153.433 107.949 153.946 108.084 154.504 108.084ZM168.624 111.189C167.31 111.189 166.158 110.901 165.168 110.325C164.178 109.749 163.404 108.948 162.846 107.922C162.288 106.878 162.009 105.672 162.009 104.304C162.009 102.918 162.288 101.703 162.846 100.659C163.404 99.615 164.187 98.796 165.195 98.202C166.203 97.608 167.364 97.311 168.678 97.311C170.1 97.311 171.36 97.662 172.458 98.364C173.574 99.066 174.357 100.011 174.807 101.199L171.594 102.117C171.378 101.595 171.018 101.181 170.514 100.875C170.028 100.569 169.47 100.416 168.84 100.416C168.21 100.416 167.652 100.578 167.166 100.902C166.698 101.226 166.329 101.676 166.059 102.252C165.807 102.828 165.681 103.503 165.681 104.277C165.681 105.447 165.969 106.374 166.545 107.058C167.121 107.742 167.895 108.084 168.867 108.084C169.479 108.084 170.037 107.94 170.541 107.652C171.045 107.346 171.423 106.932 171.675 106.41L174.861 107.328C174.375 108.498 173.565 109.434 172.431 110.136C171.315 110.838 170.046 111.189 168.624 111.189ZM176.018 91.56H179.501V102.765H180.365L184.82 97.5H189.356L183.389 104.196L189.383 111H184.847L180.338 105.654H179.501V111H176.018V91.56Z" fill="#050013"/>
<g clip-path="url(#clip1_598_624)">
<path d="M283.6 108.55L283.5 108.65L283.39 108.55C278.64 104.24 275.5 101.39 275.5 98.5C275.5 96.5 277 95 279 95C280.54 95 282.04 96 282.57 97.36H284.43C284.96 96 286.46 95 288 95C290 95 291.5 96.5 291.5 98.5C291.5 101.39 288.36 104.24 283.6 108.55ZM288 93C286.26 93 284.59 93.81 283.5 95.08C282.41 93.81 280.74 93 279 93C275.92 93 273.5 95.41 273.5 98.5C273.5 102.27 276.9 105.36 282.05 110.03L283.5 111.35L284.95 110.03C290.1 105.36 293.5 102.27 293.5 98.5C293.5 95.41 291.08 93 288 93Z" fill="#23FF53"/>
<path d="M283.6 108.55L283.5 108.65L283.39 108.55C278.64 104.24 275.5 101.39 275.5 98.5C275.5 96.5 277 95 279 95C280.54 95 282.04 96 282.57 97.36H284.43C284.96 96 286.46 95 288 95C290 95 291.5 96.5 291.5 98.5C291.5 101.39 288.36 104.24 283.6 108.55Z" fill="#23FF53"/>
</g>
</g>
<g clip-path="url(#clip2_598_624)">
<rect x="7.5" y="138" width="310" height="54" rx="18" fill="#23FF53"/>
<path d="M23.981 175H20.336V156.1H24.494L30.515 170.248L36.536 156.1H40.694V175H37.049V162.796L31.946 175H29.084L23.981 162.796V175ZM54.5625 175H51.4035L51.1605 173.596C50.7285 174.1 50.1975 174.496 49.5675 174.784C48.9555 175.054 48.2985 175.189 47.5965 175.189C46.5525 175.189 45.6525 174.964 44.8965 174.514C44.1405 174.064 43.5555 173.416 43.1415 172.57C42.7275 171.706 42.5205 170.644 42.5205 169.384V161.5H46.0035V168.952C46.0035 169.978 46.2015 170.761 46.5975 171.301C47.0115 171.823 47.6415 172.084 48.4875 172.084C49.3155 172.084 49.9545 171.814 50.4045 171.274C50.8725 170.734 51.1065 169.951 51.1065 168.925V161.5H54.5625V175ZM58.8156 170.599C58.9236 171.049 59.1036 171.391 59.3556 171.625C59.6256 171.859 59.9226 172.03 60.2466 172.138C60.5886 172.228 60.9306 172.273 61.2726 172.273C61.9026 172.273 62.3976 172.156 62.7576 171.922C63.1176 171.67 63.2976 171.355 63.2976 170.977C63.2976 170.653 63.1716 170.401 62.9196 170.221C62.6676 170.023 62.3436 169.879 61.9476 169.789C61.5516 169.681 61.1466 169.573 60.7326 169.465C60.2466 169.339 59.7246 169.204 59.1666 169.06C58.6266 168.898 58.1136 168.673 57.6276 168.385C57.1416 168.097 56.7366 167.728 56.4126 167.278C56.0886 166.81 55.9266 166.225 55.9266 165.523C55.9266 164.695 56.1516 163.966 56.6016 163.336C57.0696 162.706 57.7086 162.211 58.5186 161.851C59.3466 161.491 60.3006 161.311 61.3806 161.311C62.6586 161.311 63.7386 161.581 64.6206 162.121C65.5026 162.661 66.1416 163.435 66.5376 164.443L63.4866 165.307C63.3966 165.055 63.2436 164.848 63.0276 164.686C62.8116 164.524 62.5506 164.407 62.2446 164.335C61.9566 164.263 61.6596 164.227 61.3536 164.227C60.8316 164.227 60.3996 164.335 60.0576 164.551C59.7156 164.749 59.5446 165.028 59.5446 165.388C59.5446 165.604 59.6076 165.784 59.7336 165.928C59.8596 166.054 60.0306 166.162 60.2466 166.252C60.4806 166.342 60.7416 166.423 61.0296 166.495C61.3356 166.567 61.6686 166.648 62.0286 166.738C62.5866 166.882 63.1446 167.053 63.7026 167.251C64.2786 167.431 64.8006 167.665 65.2686 167.953C65.7546 168.241 66.1416 168.628 66.4296 169.114C66.7176 169.6 66.8796 170.212 66.9156 170.95C66.9156 171.742 66.6906 172.462 66.2406 173.11C65.7906 173.74 65.1426 174.244 64.2966 174.622C63.4506 175 62.4246 175.189 61.2186 175.189C59.8146 175.189 58.6176 174.892 57.6276 174.298C56.6556 173.704 56.0166 172.777 55.7106 171.517L58.8156 170.599ZM68.5432 161.5H71.9992V175H68.5432V161.5ZM70.2982 159.772C69.6502 159.772 69.1192 159.574 68.7052 159.178C68.2912 158.764 68.0842 158.26 68.0842 157.666C68.0842 157.072 68.2912 156.577 68.7052 156.181C69.1192 155.767 69.6502 155.56 70.2982 155.56C70.9102 155.56 71.4232 155.767 71.8372 156.181C72.2692 156.577 72.4852 157.072 72.4852 157.666C72.4852 158.26 72.2692 158.764 71.8372 159.178C71.4232 159.574 70.9102 159.772 70.2982 159.772ZM80.2385 175.189C78.9245 175.189 77.7725 174.901 76.7825 174.325C75.7925 173.749 75.0185 172.948 74.4605 171.922C73.9025 170.878 73.6235 169.672 73.6235 168.304C73.6235 166.918 73.9025 165.703 74.4605 164.659C75.0185 163.615 75.8015 162.796 76.8095 162.202C77.8175 161.608 78.9785 161.311 80.2925 161.311C81.7145 161.311 82.9745 161.662 84.0725 162.364C85.1885 163.066 85.9715 164.011 86.4215 165.199L83.2085 166.117C82.9925 165.595 82.6325 165.181 82.1285 164.875C81.6425 164.569 81.0845 164.416 80.4545 164.416C79.8245 164.416 79.2665 164.578 78.7805 164.902C78.3125 165.226 77.9435 165.676 77.6735 166.252C77.4215 166.828 77.2955 167.503 77.2955 168.277C77.2955 169.447 77.5835 170.374 78.1595 171.058C78.7355 171.742 79.5095 172.084 80.4815 172.084C81.0935 172.084 81.6515 171.94 82.1555 171.652C82.6595 171.346 83.0375 170.932 83.2895 170.41L86.4755 171.328C85.9895 172.498 85.1795 173.434 84.0455 174.136C82.9295 174.838 81.6605 175.189 80.2385 175.189ZM102.462 171.004H92.9582V168.25L101.814 156.1H106.107V167.953H108.483V171.004H106.107V175H102.462V171.004ZM102.624 167.953V159.988L96.9812 167.953H102.624ZM115.681 165.928H127.075V169.006H115.681V165.928ZM145.75 161.932C145.75 161.086 145.489 160.411 144.967 159.907C144.463 159.403 143.671 159.151 142.591 159.151H138.568V164.74H142.591C143.311 164.74 143.905 164.632 144.373 164.416C144.841 164.182 145.183 163.858 145.399 163.444C145.633 163.012 145.75 162.508 145.75 161.932ZM142.699 156.1C144.229 156.1 145.489 156.37 146.479 156.91C147.487 157.432 148.234 158.143 148.72 159.043C149.224 159.925 149.476 160.888 149.476 161.932C149.476 162.634 149.35 163.336 149.098 164.038C148.846 164.722 148.45 165.352 147.91 165.928C147.37 166.486 146.668 166.936 145.804 167.278C144.958 167.62 143.923 167.791 142.699 167.791H138.568V175H134.923V156.1H142.699ZM144.751 166.576L149.854 175H145.777L140.89 166.576H144.751ZM157.123 175.189C155.809 175.189 154.639 174.91 153.613 174.352C152.587 173.776 151.777 172.975 151.183 171.949C150.607 170.905 150.319 169.681 150.319 168.277C150.319 166.855 150.616 165.622 151.21 164.578C151.822 163.534 152.65 162.733 153.694 162.175C154.738 161.599 155.908 161.311 157.204 161.311C158.5 161.311 159.67 161.599 160.714 162.175C161.758 162.733 162.586 163.534 163.198 164.578C163.81 165.604 164.116 166.819 164.116 168.223C164.116 169.645 163.801 170.878 163.171 171.922C162.559 172.966 161.722 173.776 160.66 174.352C159.616 174.91 158.437 175.189 157.123 175.189ZM157.096 172.084C157.654 172.084 158.185 171.949 158.689 171.679C159.193 171.391 159.607 170.968 159.931 170.41C160.255 169.834 160.417 169.105 160.417 168.223C160.417 167.377 160.264 166.675 159.958 166.117C159.652 165.541 159.247 165.118 158.743 164.848C158.257 164.56 157.726 164.416 157.15 164.416C156.592 164.416 156.07 164.56 155.584 164.848C155.116 165.118 154.738 165.541 154.45 166.117C154.18 166.675 154.045 167.395 154.045 168.277C154.045 169.123 154.18 169.834 154.45 170.41C154.72 170.968 155.089 171.391 155.557 171.679C156.025 171.949 156.538 172.084 157.096 172.084ZM171.217 175.189C169.903 175.189 168.751 174.901 167.761 174.325C166.771 173.749 165.997 172.948 165.439 171.922C164.881 170.878 164.602 169.672 164.602 168.304C164.602 166.918 164.881 165.703 165.439 164.659C165.997 163.615 166.78 162.796 167.788 162.202C168.796 161.608 169.957 161.311 171.271 161.311C172.693 161.311 173.953 161.662 175.051 162.364C176.167 163.066 176.95 164.011 177.4 165.199L174.187 166.117C173.971 165.595 173.611 165.181 173.107 164.875C172.621 164.569 172.063 164.416 171.433 164.416C170.803 164.416 170.245 164.578 169.759 164.902C169.291 165.226 168.922 165.676 168.652 166.252C168.4 166.828 168.274 167.503 168.274 168.277C168.274 169.447 168.562 170.374 169.138 171.058C169.714 171.742 170.488 172.084 171.46 172.084C172.072 172.084 172.63 171.94 173.134 171.652C173.638 171.346 174.016 170.932 174.268 170.41L177.454 171.328C176.968 172.498 176.158 173.434 175.024 174.136C173.908 174.838 172.639 175.189 171.217 175.189ZM178.61 155.56H182.093V166.765H182.957L187.412 161.5H191.948L185.981 168.196L191.975 175H187.439L182.93 169.654H182.093V175H178.61V155.56Z" fill="#050013"/>
<g clip-path="url(#clip3_598_624)">
<path d="M283.6 172.55L283.5 172.65L283.39 172.55C278.64 168.24 275.5 165.39 275.5 162.5C275.5 160.5 277 159 279 159C280.54 159 282.04 160 282.57 161.36H284.43C284.96 160 286.46 159 288 159C290 159 291.5 160.5 291.5 162.5C291.5 165.39 288.36 168.24 283.6 172.55ZM288 157C286.26 157 284.59 157.81 283.5 159.08C282.41 157.81 280.74 157 279 157C275.92 157 273.5 159.41 273.5 162.5C273.5 166.27 276.9 169.36 282.05 174.03L283.5 175.35L284.95 174.03C290.1 169.36 293.5 166.27 293.5 162.5C293.5 159.41 291.08 157 288 157Z" fill="#23FF53"/>
<path d="M283.6 172.55L283.5 172.65L283.39 172.55C278.64 168.24 275.5 165.39 275.5 162.5C275.5 160.5 277 159 279 159C280.54 159 282.04 160 282.57 161.36H284.43C284.96 160 286.46 159 288 159C290 159 291.5 160.5 291.5 162.5C291.5 165.39 288.36 168.24 283.6 172.55Z" fill="#23FF53"/>
</g>
</g>
<g clip-path="url(#clip4_598_624)">
<rect x="7.5" y="202" width="310" height="54" rx="18" fill="#23FF53"/>
<path d="M23.981 239H20.336V220.1H24.494L30.515 234.248L36.536 220.1H40.694V239H37.049V226.796L31.946 239H29.084L23.981 226.796V239ZM54.5625 239H51.4035L51.1605 237.596C50.7285 238.1 50.1975 238.496 49.5675 238.784C48.9555 239.054 48.2985 239.189 47.5965 239.189C46.5525 239.189 45.6525 238.964 44.8965 238.514C44.1405 238.064 43.5555 237.416 43.1415 236.57C42.7275 235.706 42.5205 234.644 42.5205 233.384V225.5H46.0035V232.952C46.0035 233.978 46.2015 234.761 46.5975 235.301C47.0115 235.823 47.6415 236.084 48.4875 236.084C49.3155 236.084 49.9545 235.814 50.4045 235.274C50.8725 234.734 51.1065 233.951 51.1065 232.925V225.5H54.5625V239ZM58.8156 234.599C58.9236 235.049 59.1036 235.391 59.3556 235.625C59.6256 235.859 59.9226 236.03 60.2466 236.138C60.5886 236.228 60.9306 236.273 61.2726 236.273C61.9026 236.273 62.3976 236.156 62.7576 235.922C63.1176 235.67 63.2976 235.355 63.2976 234.977C63.2976 234.653 63.1716 234.401 62.9196 234.221C62.6676 234.023 62.3436 233.879 61.9476 233.789C61.5516 233.681 61.1466 233.573 60.7326 233.465C60.2466 233.339 59.7246 233.204 59.1666 233.06C58.6266 232.898 58.1136 232.673 57.6276 232.385C57.1416 232.097 56.7366 231.728 56.4126 231.278C56.0886 230.81 55.9266 230.225 55.9266 229.523C55.9266 228.695 56.1516 227.966 56.6016 227.336C57.0696 226.706 57.7086 226.211 58.5186 225.851C59.3466 225.491 60.3006 225.311 61.3806 225.311C62.6586 225.311 63.7386 225.581 64.6206 226.121C65.5026 226.661 66.1416 227.435 66.5376 228.443L63.4866 229.307C63.3966 229.055 63.2436 228.848 63.0276 228.686C62.8116 228.524 62.5506 228.407 62.2446 228.335C61.9566 228.263 61.6596 228.227 61.3536 228.227C60.8316 228.227 60.3996 228.335 60.0576 228.551C59.7156 228.749 59.5446 229.028 59.5446 229.388C59.5446 229.604 59.6076 229.784 59.7336 229.928C59.8596 230.054 60.0306 230.162 60.2466 230.252C60.4806 230.342 60.7416 230.423 61.0296 230.495C61.3356 230.567 61.6686 230.648 62.0286 230.738C62.5866 230.882 63.1446 231.053 63.7026 231.251C64.2786 231.431 64.8006 231.665 65.2686 231.953C65.7546 232.241 66.1416 232.628 66.4296 233.114C66.7176 233.6 66.8796 234.212 66.9156 234.95C66.9156 235.742 66.6906 236.462 66.2406 237.11C65.7906 237.74 65.1426 238.244 64.2966 238.622C63.4506 239 62.4246 239.189 61.2186 239.189C59.8146 239.189 58.6176 238.892 57.6276 238.298C56.6556 237.704 56.0166 236.777 55.7106 235.517L58.8156 234.599ZM68.5432 225.5H71.9992V239H68.5432V225.5ZM70.2982 223.772C69.6502 223.772 69.1192 223.574 68.7052 223.178C68.2912 222.764 68.0842 222.26 68.0842 221.666C68.0842 221.072 68.2912 220.577 68.7052 220.181C69.1192 219.767 69.6502 219.56 70.2982 219.56C70.9102 219.56 71.4232 219.767 71.8372 220.181C72.2692 220.577 72.4852 221.072 72.4852 221.666C72.4852 222.26 72.2692 222.764 71.8372 223.178C71.4232 223.574 70.9102 223.772 70.2982 223.772ZM80.2385 239.189C78.9245 239.189 77.7725 238.901 76.7825 238.325C75.7925 237.749 75.0185 236.948 74.4605 235.922C73.9025 234.878 73.6235 233.672 73.6235 232.304C73.6235 230.918 73.9025 229.703 74.4605 228.659C75.0185 227.615 75.8015 226.796 76.8095 226.202C77.8175 225.608 78.9785 225.311 80.2925 225.311C81.7145 225.311 82.9745 225.662 84.0725 226.364C85.1885 227.066 85.9715 228.011 86.4215 229.199L83.2085 230.117C82.9925 229.595 82.6325 229.181 82.1285 228.875C81.6425 228.569 81.0845 228.416 80.4545 228.416C79.8245 228.416 79.2665 228.578 78.7805 228.902C78.3125 229.226 77.9435 229.676 77.6735 230.252C77.4215 230.828 77.2955 231.503 77.2955 232.277C77.2955 233.447 77.5835 234.374 78.1595 235.058C78.7355 235.742 79.5095 236.084 80.4815 236.084C81.0935 236.084 81.6515 235.94 82.1555 235.652C82.6595 235.346 83.0375 234.932 83.2895 234.41L86.4755 235.328C85.9895 236.498 85.1795 237.434 84.0455 238.136C82.9295 238.838 81.6605 239.189 80.2385 239.189ZM105.999 220.1V223.151H97.4942V227.687C97.8542 227.237 98.3312 226.877 98.9252 226.607C99.5372 226.337 100.266 226.202 101.112 226.202C102.228 226.202 103.182 226.4 103.974 226.796C104.766 227.192 105.405 227.705 105.891 228.335C106.395 228.947 106.755 229.622 106.971 230.36C107.205 231.098 107.322 231.809 107.322 232.493C107.322 233.789 107.043 234.941 106.485 235.949C105.945 236.957 105.162 237.749 104.136 238.325C103.128 238.901 101.913 239.189 100.491 239.189C99.0872 239.189 97.8812 238.955 96.8732 238.487C95.8832 238.001 95.1002 237.344 94.5242 236.516C93.9662 235.688 93.6242 234.743 93.4982 233.681H97.0622C97.2242 234.383 97.5932 234.959 98.1692 235.409C98.7452 235.859 99.5012 236.084 100.437 236.084C101.175 236.084 101.769 235.94 102.219 235.652C102.687 235.364 103.038 234.959 103.272 234.437C103.506 233.897 103.623 233.258 103.623 232.52C103.623 231.476 103.344 230.666 102.786 230.09C102.228 229.514 101.436 229.226 100.41 229.226C99.6362 229.226 98.9882 229.433 98.4662 229.847C97.9442 230.243 97.5752 230.756 97.3592 231.386H93.8492V220.1H105.999ZM114.679 229.928H126.073V233.006H114.679V229.928ZM144.748 225.932C144.748 225.086 144.487 224.411 143.965 223.907C143.461 223.403 142.669 223.151 141.589 223.151H137.566V228.74H141.589C142.309 228.74 142.903 228.632 143.371 228.416C143.839 228.182 144.181 227.858 144.397 227.444C144.631 227.012 144.748 226.508 144.748 225.932ZM141.697 220.1C143.227 220.1 144.487 220.37 145.477 220.91C146.485 221.432 147.232 222.143 147.718 223.043C148.222 223.925 148.474 224.888 148.474 225.932C148.474 226.634 148.348 227.336 148.096 228.038C147.844 228.722 147.448 229.352 146.908 229.928C146.368 230.486 145.666 230.936 144.802 231.278C143.956 231.62 142.921 231.791 141.697 231.791H137.566V239H133.921V220.1H141.697ZM143.749 230.576L148.852 239H144.775L139.888 230.576H143.749ZM156.121 239.189C154.807 239.189 153.637 238.91 152.611 238.352C151.585 237.776 150.775 236.975 150.181 235.949C149.605 234.905 149.317 233.681 149.317 232.277C149.317 230.855 149.614 229.622 150.208 228.578C150.82 227.534 151.648 226.733 152.692 226.175C153.736 225.599 154.906 225.311 156.202 225.311C157.498 225.311 158.668 225.599 159.712 226.175C160.756 226.733 161.584 227.534 162.196 228.578C162.808 229.604 163.114 230.819 163.114 232.223C163.114 233.645 162.799 234.878 162.169 235.922C161.557 236.966 160.72 237.776 159.658 238.352C158.614 238.91 157.435 239.189 156.121 239.189ZM156.094 236.084C156.652 236.084 157.183 235.949 157.687 235.679C158.191 235.391 158.605 234.968 158.929 234.41C159.253 233.834 159.415 233.105 159.415 232.223C159.415 231.377 159.262 230.675 158.956 230.117C158.65 229.541 158.245 229.118 157.741 228.848C157.255 228.56 156.724 228.416 156.148 228.416C155.59 228.416 155.068 228.56 154.582 228.848C154.114 229.118 153.736 229.541 153.448 230.117C153.178 230.675 153.043 231.395 153.043 232.277C153.043 233.123 153.178 233.834 153.448 234.41C153.718 234.968 154.087 235.391 154.555 235.679C155.023 235.949 155.536 236.084 156.094 236.084ZM170.215 239.189C168.901 239.189 167.749 238.901 166.759 238.325C165.769 237.749 164.995 236.948 164.437 235.922C163.879 234.878 163.6 233.672 163.6 232.304C163.6 230.918 163.879 229.703 164.437 228.659C164.995 227.615 165.778 226.796 166.786 226.202C167.794 225.608 168.955 225.311 170.269 225.311C171.691 225.311 172.951 225.662 174.049 226.364C175.165 227.066 175.948 228.011 176.398 229.199L173.185 230.117C172.969 229.595 172.609 229.181 172.105 228.875C171.619 228.569 171.061 228.416 170.431 228.416C169.801 228.416 169.243 228.578 168.757 228.902C168.289 229.226 167.92 229.676 167.65 230.252C167.398 230.828 167.272 231.503 167.272 232.277C167.272 233.447 167.56 234.374 168.136 235.058C168.712 235.742 169.486 236.084 170.458 236.084C171.07 236.084 171.628 235.94 172.132 235.652C172.636 235.346 173.014 234.932 173.266 234.41L176.452 235.328C175.966 236.498 175.156 237.434 174.022 238.136C172.906 238.838 171.637 239.189 170.215 239.189ZM177.608 219.56H181.091V230.765H181.955L186.41 225.5H190.946L184.979 232.196L190.973 239H186.437L181.928 233.654H181.091V239H177.608V219.56Z" fill="#050013"/>
<g clip-path="url(#clip5_598_624)">
<path d="M283.6 236.55L283.5 236.65L283.39 236.55C278.64 232.24 275.5 229.39 275.5 226.5C275.5 224.5 277 223 279 223C280.54 223 282.04 224 282.57 225.36H284.43C284.96 224 286.46 223 288 223C290 223 291.5 224.5 291.5 226.5C291.5 229.39 288.36 232.24 283.6 236.55ZM288 221C286.26 221 284.59 221.81 283.5 223.08C282.41 221.81 280.74 221 279 221C275.92 221 273.5 223.41 273.5 226.5C273.5 230.27 276.9 233.36 282.05 238.03L283.5 239.35L284.95 238.03C290.1 233.36 293.5 230.27 293.5 226.5C293.5 223.41 291.08 221 288 221Z" fill="#23FF53"/>
<path d="M283.6 236.55L283.5 236.65L283.39 236.55C278.64 232.24 275.5 229.39 275.5 226.5C275.5 224.5 277 223 279 223C280.54 223 282.04 224 282.57 225.36H284.43C284.96 224 286.46 223 288 223C290 223 291.5 224.5 291.5 226.5C291.5 229.39 288.36 232.24 283.6 236.55Z" fill="#23FF53"/>
</g>
</g>
<defs>
<clipPath id="clip0_598_624">
<rect x="7.5" y="74" width="310" height="54" rx="18" fill="white"/>
</clipPath>
<clipPath id="clip1_598_624">
<rect width="20" height="19" fill="white" transform="translate(273.5 93)"/>
</clipPath>
<clipPath id="clip2_598_624">
<rect x="7.5" y="138" width="310" height="54" rx="18" fill="white"/>
</clipPath>
<clipPath id="clip3_598_624">
<rect width="20" height="19" fill="white" transform="translate(273.5 157)"/>
</clipPath>
<clipPath id="clip4_598_624">
<rect x="7.5" y="202" width="310" height="54" rx="18" fill="white"/>
</clipPath>
<clipPath id="clip5_598_624">
<rect width="20" height="19" fill="white" transform="translate(273.5 221)"/>
</clipPath>
</defs>
</svg>
