<svg width="325" height="392" viewBox="0 0 325 392" fill="none" xmlns="http://www.w3.org/2000/svg">
<rect width="325" height="392" rx="18" fill="#7000FF"/>
<path d="M0 18C0 8.05887 8.05887 0 18 0H307C316.941 0 325 8.05887 325 18V57H0V18Z" fill="#7000FF"/>
<path d="M25.1603 41H21.5153V22.1H25.6733L31.6943 36.248L37.7153 22.1H41.8733V41H38.2283V28.796L33.1253 41H30.2633L25.1603 28.796V41ZM55.7418 41H52.5828L52.3398 39.596C51.9078 40.1 51.3768 40.496 50.7468 40.784C50.1348 41.054 49.4778 41.189 48.7758 41.189C47.7318 41.189 46.8318 40.964 46.0758 40.514C45.3198 40.064 44.7348 39.416 44.3208 38.57C43.9068 37.706 43.6998 36.644 43.6998 35.384V27.5H47.1828V34.952C47.1828 35.978 47.3808 36.761 47.7768 37.301C48.1908 37.823 48.8208 38.084 49.6668 38.084C50.4948 38.084 51.1338 37.814 51.5838 37.274C52.0518 36.734 52.2858 35.951 52.2858 34.925V27.5H55.7418V41ZM59.9949 36.599C60.1029 37.049 60.2829 37.391 60.5349 37.625C60.8049 37.859 61.1019 38.03 61.4259 38.138C61.7679 38.228 62.1099 38.273 62.4519 38.273C63.0819 38.273 63.5769 38.156 63.9369 37.922C64.2969 37.67 64.4769 37.355 64.4769 36.977C64.4769 36.653 64.3509 36.401 64.0989 36.221C63.8469 36.023 63.5229 35.879 63.1269 35.789C62.7309 35.681 62.3259 35.573 61.9119 35.465C61.4259 35.339 60.9039 35.204 60.3459 35.06C59.8059 34.898 59.2929 34.673 58.8069 34.385C58.3209 34.097 57.9159 33.728 57.5919 33.278C57.2679 32.81 57.1059 32.225 57.1059 31.523C57.1059 30.695 57.3309 29.966 57.7809 29.336C58.2489 28.706 58.8879 28.211 59.6979 27.851C60.5259 27.491 61.4799 27.311 62.5599 27.311C63.8379 27.311 64.9179 27.581 65.7999 28.121C66.6819 28.661 67.3209 29.435 67.7169 30.443L64.6659 31.307C64.5759 31.055 64.4229 30.848 64.2069 30.686C63.9909 30.524 63.7299 30.407 63.4239 30.335C63.1359 30.263 62.8389 30.227 62.5329 30.227C62.0109 30.227 61.5789 30.335 61.2369 30.551C60.8949 30.749 60.7239 31.028 60.7239 31.388C60.7239 31.604 60.7869 31.784 60.9129 31.928C61.0389 32.054 61.2099 32.162 61.4259 32.252C61.6599 32.342 61.9209 32.423 62.2089 32.495C62.5149 32.567 62.8479 32.648 63.2079 32.738C63.7659 32.882 64.3239 33.053 64.8819 33.251C65.4579 33.431 65.9799 33.665 66.4479 33.953C66.9339 34.241 67.3209 34.628 67.6089 35.114C67.8969 35.6 68.0589 36.212 68.0949 36.95C68.0949 37.742 67.8699 38.462 67.4199 39.11C66.9699 39.74 66.3219 40.244 65.4759 40.622C64.6299 41 63.6039 41.189 62.3979 41.189C60.9939 41.189 59.7969 40.892 58.8069 40.298C57.8349 39.704 57.1959 38.777 56.8899 37.517L59.9949 36.599ZM69.7225 27.5H73.1785V41H69.7225V27.5ZM71.4775 25.772C70.8295 25.772 70.2985 25.574 69.8845 25.178C69.4705 24.764 69.2635 24.26 69.2635 23.666C69.2635 23.072 69.4705 22.577 69.8845 22.181C70.2985 21.767 70.8295 21.56 71.4775 21.56C72.0895 21.56 72.6025 21.767 73.0165 22.181C73.4485 22.577 73.6645 23.072 73.6645 23.666C73.6645 24.26 73.4485 24.764 73.0165 25.178C72.6025 25.574 72.0895 25.772 71.4775 25.772ZM81.4178 41.189C80.1038 41.189 78.9518 40.901 77.9618 40.325C76.9718 39.749 76.1978 38.948 75.6398 37.922C75.0818 36.878 74.8028 35.672 74.8028 34.304C74.8028 32.918 75.0818 31.703 75.6398 30.659C76.1978 29.615 76.9808 28.796 77.9888 28.202C78.9968 27.608 80.1578 27.311 81.4718 27.311C82.8938 27.311 84.1538 27.662 85.2518 28.364C86.3678 29.066 87.1508 30.011 87.6008 31.199L84.3878 32.117C84.1718 31.595 83.8118 31.181 83.3078 30.875C82.8218 30.569 82.2638 30.416 81.6338 30.416C81.0038 30.416 80.4458 30.578 79.9598 30.902C79.4918 31.226 79.1228 31.676 78.8528 32.252C78.6008 32.828 78.4748 33.503 78.4748 34.277C78.4748 35.447 78.7628 36.374 79.3388 37.058C79.9148 37.742 80.6888 38.084 81.6608 38.084C82.2728 38.084 82.8308 37.94 83.3348 37.652C83.8388 37.346 84.2168 36.932 84.4688 36.41L87.6548 37.328C87.1688 38.498 86.3588 39.434 85.2248 40.136C84.1088 40.838 82.8398 41.189 81.4178 41.189ZM91.2411 36.599C91.3491 37.049 91.5291 37.391 91.7811 37.625C92.0511 37.859 92.3481 38.03 92.6721 38.138C93.0141 38.228 93.3561 38.273 93.6981 38.273C94.3281 38.273 94.8231 38.156 95.1831 37.922C95.5431 37.67 95.7231 37.355 95.7231 36.977C95.7231 36.653 95.5971 36.401 95.3451 36.221C95.0931 36.023 94.7691 35.879 94.3731 35.789C93.9771 35.681 93.5721 35.573 93.1581 35.465C92.6721 35.339 92.1501 35.204 91.5921 35.06C91.0521 34.898 90.5391 34.673 90.0531 34.385C89.5671 34.097 89.1621 33.728 88.8381 33.278C88.5141 32.81 88.3521 32.225 88.3521 31.523C88.3521 30.695 88.5771 29.966 89.0271 29.336C89.4951 28.706 90.1341 28.211 90.9441 27.851C91.7721 27.491 92.7261 27.311 93.8061 27.311C95.0841 27.311 96.1641 27.581 97.0461 28.121C97.9281 28.661 98.5671 29.435 98.9631 30.443L95.9121 31.307C95.8221 31.055 95.6691 30.848 95.4531 30.686C95.2371 30.524 94.9761 30.407 94.6701 30.335C94.3821 30.263 94.0851 30.227 93.7791 30.227C93.2571 30.227 92.8251 30.335 92.4831 30.551C92.1411 30.749 91.9701 31.028 91.9701 31.388C91.9701 31.604 92.0331 31.784 92.1591 31.928C92.2851 32.054 92.4561 32.162 92.6721 32.252C92.9061 32.342 93.1671 32.423 93.4551 32.495C93.7611 32.567 94.0941 32.648 94.4541 32.738C95.0121 32.882 95.5701 33.053 96.1281 33.251C96.7041 33.431 97.2261 33.665 97.6941 33.953C98.1801 34.241 98.5671 34.628 98.8551 35.114C99.1431 35.6 99.3051 36.212 99.3411 36.95C99.3411 37.742 99.1161 38.462 98.6661 39.11C98.2161 39.74 97.5681 40.244 96.7221 40.622C95.8761 41 94.8501 41.189 93.6441 41.189C92.2401 41.189 91.0431 40.892 90.0531 40.298C89.0811 39.704 88.4421 38.777 88.1361 37.517L91.2411 36.599Z" fill="white"/>
<path d="M19 57L306 57" stroke="white" stroke-width="3" stroke-linecap="round"/>
<g clip-path="url(#clip0_598_643)">
<rect y="59" width="325" height="54" rx="18" fill="#7000FF"/>
<path d="M30.481 96H26.836V77.1H30.994L37.015 91.248L43.036 77.1H47.194V96H43.549V83.796L38.446 96H35.584L30.481 83.796V96ZM61.0625 96H57.9035L57.6605 94.596C57.2285 95.1 56.6975 95.496 56.0675 95.784C55.4555 96.054 54.7985 96.189 54.0965 96.189C53.0525 96.189 52.1525 95.964 51.3965 95.514C50.6405 95.064 50.0555 94.416 49.6415 93.57C49.2275 92.706 49.0205 91.644 49.0205 90.384V82.5H52.5035V89.952C52.5035 90.978 52.7015 91.761 53.0975 92.301C53.5115 92.823 54.1415 93.084 54.9875 93.084C55.8155 93.084 56.4545 92.814 56.9045 92.274C57.3725 91.734 57.6065 90.951 57.6065 89.925V82.5H61.0625V96ZM65.3156 91.599C65.4236 92.049 65.6036 92.391 65.8556 92.625C66.1256 92.859 66.4226 93.03 66.7466 93.138C67.0886 93.228 67.4306 93.273 67.7726 93.273C68.4026 93.273 68.8976 93.156 69.2576 92.922C69.6176 92.67 69.7976 92.355 69.7976 91.977C69.7976 91.653 69.6716 91.401 69.4196 91.221C69.1676 91.023 68.8436 90.879 68.4476 90.789C68.0516 90.681 67.6466 90.573 67.2326 90.465C66.7466 90.339 66.2246 90.204 65.6666 90.06C65.1266 89.898 64.6136 89.673 64.1276 89.385C63.6416 89.097 63.2366 88.728 62.9126 88.278C62.5886 87.81 62.4266 87.225 62.4266 86.523C62.4266 85.695 62.6516 84.966 63.1016 84.336C63.5696 83.706 64.2086 83.211 65.0186 82.851C65.8466 82.491 66.8006 82.311 67.8806 82.311C69.1586 82.311 70.2386 82.581 71.1206 83.121C72.0026 83.661 72.6416 84.435 73.0376 85.443L69.9866 86.307C69.8966 86.055 69.7436 85.848 69.5276 85.686C69.3116 85.524 69.0506 85.407 68.7446 85.335C68.4566 85.263 68.1596 85.227 67.8536 85.227C67.3316 85.227 66.8996 85.335 66.5576 85.551C66.2156 85.749 66.0446 86.028 66.0446 86.388C66.0446 86.604 66.1076 86.784 66.2336 86.928C66.3596 87.054 66.5306 87.162 66.7466 87.252C66.9806 87.342 67.2416 87.423 67.5296 87.495C67.8356 87.567 68.1686 87.648 68.5286 87.738C69.0866 87.882 69.6446 88.053 70.2026 88.251C70.7786 88.431 71.3006 88.665 71.7686 88.953C72.2546 89.241 72.6416 89.628 72.9296 90.114C73.2176 90.6 73.3796 91.212 73.4156 91.95C73.4156 92.742 73.1906 93.462 72.7406 94.11C72.2906 94.74 71.6426 95.244 70.7966 95.622C69.9506 96 68.9246 96.189 67.7186 96.189C66.3146 96.189 65.1176 95.892 64.1276 95.298C63.1556 94.704 62.5166 93.777 62.2106 92.517L65.3156 91.599ZM75.0432 82.5H78.4992V96H75.0432V82.5ZM76.7982 80.772C76.1502 80.772 75.6192 80.574 75.2052 80.178C74.7912 79.764 74.5842 79.26 74.5842 78.666C74.5842 78.072 74.7912 77.577 75.2052 77.181C75.6192 76.767 76.1502 76.56 76.7982 76.56C77.4102 76.56 77.9232 76.767 78.3372 77.181C78.7692 77.577 78.9852 78.072 78.9852 78.666C78.9852 79.26 78.7692 79.764 78.3372 80.178C77.9232 80.574 77.4102 80.772 76.7982 80.772ZM86.7385 96.189C85.4245 96.189 84.2725 95.901 83.2825 95.325C82.2925 94.749 81.5185 93.948 80.9605 92.922C80.4025 91.878 80.1235 90.672 80.1235 89.304C80.1235 87.918 80.4025 86.703 80.9605 85.659C81.5185 84.615 82.3015 83.796 83.3095 83.202C84.3175 82.608 85.4785 82.311 86.7925 82.311C88.2145 82.311 89.4745 82.662 90.5725 83.364C91.6885 84.066 92.4715 85.011 92.9215 86.199L89.7085 87.117C89.4925 86.595 89.1325 86.181 88.6285 85.875C88.1425 85.569 87.5845 85.416 86.9545 85.416C86.3245 85.416 85.7665 85.578 85.2805 85.902C84.8125 86.226 84.4435 86.676 84.1735 87.252C83.9215 87.828 83.7955 88.503 83.7955 89.277C83.7955 90.447 84.0835 91.374 84.6595 92.058C85.2355 92.742 86.0095 93.084 86.9815 93.084C87.5935 93.084 88.1515 92.94 88.6555 92.652C89.1595 92.346 89.5375 91.932 89.7895 91.41L92.9755 92.328C92.4895 93.498 91.6795 94.434 90.5455 95.136C89.4295 95.838 88.1605 96.189 86.7385 96.189ZM102.05 80.151H99.4582V77.1H105.695V96H102.05V80.151ZM119.588 86.928H130.982V90.006H119.588V86.928ZM149.657 82.932C149.657 82.086 149.396 81.411 148.874 80.907C148.37 80.403 147.578 80.151 146.498 80.151H142.475V85.74H146.498C147.218 85.74 147.812 85.632 148.28 85.416C148.748 85.182 149.09 84.858 149.306 84.444C149.54 84.012 149.657 83.508 149.657 82.932ZM146.606 77.1C148.136 77.1 149.396 77.37 150.386 77.91C151.394 78.432 152.141 79.143 152.627 80.043C153.131 80.925 153.383 81.888 153.383 82.932C153.383 83.634 153.257 84.336 153.005 85.038C152.753 85.722 152.357 86.352 151.817 86.928C151.277 87.486 150.575 87.936 149.711 88.278C148.865 88.62 147.83 88.791 146.606 88.791H142.475V96H138.83V77.1H146.606ZM148.658 87.576L153.761 96H149.684L144.797 87.576H148.658ZM161.031 96.189C159.717 96.189 158.547 95.91 157.521 95.352C156.495 94.776 155.685 93.975 155.091 92.949C154.515 91.905 154.227 90.681 154.227 89.277C154.227 87.855 154.524 86.622 155.118 85.578C155.73 84.534 156.558 83.733 157.602 83.175C158.646 82.599 159.816 82.311 161.112 82.311C162.408 82.311 163.578 82.599 164.622 83.175C165.666 83.733 166.494 84.534 167.106 85.578C167.718 86.604 168.024 87.819 168.024 89.223C168.024 90.645 167.709 91.878 167.079 92.922C166.467 93.966 165.63 94.776 164.568 95.352C163.524 95.91 162.345 96.189 161.031 96.189ZM161.004 93.084C161.562 93.084 162.093 92.949 162.597 92.679C163.101 92.391 163.515 91.968 163.839 91.41C164.163 90.834 164.325 90.105 164.325 89.223C164.325 88.377 164.172 87.675 163.866 87.117C163.56 86.541 163.155 86.118 162.651 85.848C162.165 85.56 161.634 85.416 161.058 85.416C160.5 85.416 159.978 85.56 159.492 85.848C159.024 86.118 158.646 86.541 158.358 87.117C158.088 87.675 157.953 88.395 157.953 89.277C157.953 90.123 158.088 90.834 158.358 91.41C158.628 91.968 158.997 92.391 159.465 92.679C159.933 92.949 160.446 93.084 161.004 93.084ZM175.124 96.189C173.81 96.189 172.658 95.901 171.668 95.325C170.678 94.749 169.904 93.948 169.346 92.922C168.788 91.878 168.509 90.672 168.509 89.304C168.509 87.918 168.788 86.703 169.346 85.659C169.904 84.615 170.687 83.796 171.695 83.202C172.703 82.608 173.864 82.311 175.178 82.311C176.6 82.311 177.86 82.662 178.958 83.364C180.074 84.066 180.857 85.011 181.307 86.199L178.094 87.117C177.878 86.595 177.518 86.181 177.014 85.875C176.528 85.569 175.97 85.416 175.34 85.416C174.71 85.416 174.152 85.578 173.666 85.902C173.198 86.226 172.829 86.676 172.559 87.252C172.307 87.828 172.181 88.503 172.181 89.277C172.181 90.447 172.469 91.374 173.045 92.058C173.621 92.742 174.395 93.084 175.367 93.084C175.979 93.084 176.537 92.94 177.041 92.652C177.545 92.346 177.923 91.932 178.175 91.41L181.361 92.328C180.875 93.498 180.065 94.434 178.931 95.136C177.815 95.838 176.546 96.189 175.124 96.189ZM182.518 76.56H186.001V87.765H186.865L191.32 82.5H195.856L189.889 89.196L195.883 96H191.347L186.838 90.654H186.001V96H182.518V76.56Z" fill="white"/>
<g clip-path="url(#clip1_598_643)">
<path d="M290.1 93.55L290 93.65L289.89 93.55C285.14 89.24 282 86.39 282 83.5C282 81.5 283.5 80 285.5 80C287.04 80 288.54 81 289.07 82.36H290.93C291.46 81 292.96 80 294.5 80C296.5 80 298 81.5 298 83.5C298 86.39 294.86 89.24 290.1 93.55ZM294.5 78C292.76 78 291.09 78.81 290 80.08C288.91 78.81 287.24 78 285.5 78C282.42 78 280 80.41 280 83.5C280 87.27 283.4 90.36 288.55 95.03L290 96.35L291.45 95.03C296.6 90.36 300 87.27 300 83.5C300 80.41 297.58 78 294.5 78Z" fill="#23FF53"/>
<path d="M290.1 93.55L290 93.65L289.89 93.55C285.14 89.24 282 86.39 282 83.5C282 81.5 283.5 80 285.5 80C287.04 80 288.54 81 289.07 82.36H290.93C291.46 81 292.96 80 294.5 80C296.5 80 298 81.5 298 83.5C298 86.39 294.86 89.24 290.1 93.55Z" fill="#23FF53"/>
</g>
</g>
<g clip-path="url(#clip2_598_643)">
<rect y="113" width="325" height="54" rx="18" fill="#7000FF"/>
<path d="M30.481 150H26.836V131.1H30.994L37.015 145.248L43.036 131.1H47.194V150H43.549V137.796L38.446 150H35.584L30.481 137.796V150ZM61.0625 150H57.9035L57.6605 148.596C57.2285 149.1 56.6975 149.496 56.0675 149.784C55.4555 150.054 54.7985 150.189 54.0965 150.189C53.0525 150.189 52.1525 149.964 51.3965 149.514C50.6405 149.064 50.0555 148.416 49.6415 147.57C49.2275 146.706 49.0205 145.644 49.0205 144.384V136.5H52.5035V143.952C52.5035 144.978 52.7015 145.761 53.0975 146.301C53.5115 146.823 54.1415 147.084 54.9875 147.084C55.8155 147.084 56.4545 146.814 56.9045 146.274C57.3725 145.734 57.6065 144.951 57.6065 143.925V136.5H61.0625V150ZM65.3156 145.599C65.4236 146.049 65.6036 146.391 65.8556 146.625C66.1256 146.859 66.4226 147.03 66.7466 147.138C67.0886 147.228 67.4306 147.273 67.7726 147.273C68.4026 147.273 68.8976 147.156 69.2576 146.922C69.6176 146.67 69.7976 146.355 69.7976 145.977C69.7976 145.653 69.6716 145.401 69.4196 145.221C69.1676 145.023 68.8436 144.879 68.4476 144.789C68.0516 144.681 67.6466 144.573 67.2326 144.465C66.7466 144.339 66.2246 144.204 65.6666 144.06C65.1266 143.898 64.6136 143.673 64.1276 143.385C63.6416 143.097 63.2366 142.728 62.9126 142.278C62.5886 141.81 62.4266 141.225 62.4266 140.523C62.4266 139.695 62.6516 138.966 63.1016 138.336C63.5696 137.706 64.2086 137.211 65.0186 136.851C65.8466 136.491 66.8006 136.311 67.8806 136.311C69.1586 136.311 70.2386 136.581 71.1206 137.121C72.0026 137.661 72.6416 138.435 73.0376 139.443L69.9866 140.307C69.8966 140.055 69.7436 139.848 69.5276 139.686C69.3116 139.524 69.0506 139.407 68.7446 139.335C68.4566 139.263 68.1596 139.227 67.8536 139.227C67.3316 139.227 66.8996 139.335 66.5576 139.551C66.2156 139.749 66.0446 140.028 66.0446 140.388C66.0446 140.604 66.1076 140.784 66.2336 140.928C66.3596 141.054 66.5306 141.162 66.7466 141.252C66.9806 141.342 67.2416 141.423 67.5296 141.495C67.8356 141.567 68.1686 141.648 68.5286 141.738C69.0866 141.882 69.6446 142.053 70.2026 142.251C70.7786 142.431 71.3006 142.665 71.7686 142.953C72.2546 143.241 72.6416 143.628 72.9296 144.114C73.2176 144.6 73.3796 145.212 73.4156 145.95C73.4156 146.742 73.1906 147.462 72.7406 148.11C72.2906 148.74 71.6426 149.244 70.7966 149.622C69.9506 150 68.9246 150.189 67.7186 150.189C66.3146 150.189 65.1176 149.892 64.1276 149.298C63.1556 148.704 62.5166 147.777 62.2106 146.517L65.3156 145.599ZM75.0432 136.5H78.4992V150H75.0432V136.5ZM76.7982 134.772C76.1502 134.772 75.6192 134.574 75.2052 134.178C74.7912 133.764 74.5842 133.26 74.5842 132.666C74.5842 132.072 74.7912 131.577 75.2052 131.181C75.6192 130.767 76.1502 130.56 76.7982 130.56C77.4102 130.56 77.9232 130.767 78.3372 131.181C78.7692 131.577 78.9852 132.072 78.9852 132.666C78.9852 133.26 78.7692 133.764 78.3372 134.178C77.9232 134.574 77.4102 134.772 76.7982 134.772ZM86.7385 150.189C85.4245 150.189 84.2725 149.901 83.2825 149.325C82.2925 148.749 81.5185 147.948 80.9605 146.922C80.4025 145.878 80.1235 144.672 80.1235 143.304C80.1235 141.918 80.4025 140.703 80.9605 139.659C81.5185 138.615 82.3015 137.796 83.3095 137.202C84.3175 136.608 85.4785 136.311 86.7925 136.311C88.2145 136.311 89.4745 136.662 90.5725 137.364C91.6885 138.066 92.4715 139.011 92.9215 140.199L89.7085 141.117C89.4925 140.595 89.1325 140.181 88.6285 139.875C88.1425 139.569 87.5845 139.416 86.9545 139.416C86.3245 139.416 85.7665 139.578 85.2805 139.902C84.8125 140.226 84.4435 140.676 84.1735 141.252C83.9215 141.828 83.7955 142.503 83.7955 143.277C83.7955 144.447 84.0835 145.374 84.6595 146.058C85.2355 146.742 86.0095 147.084 86.9815 147.084C87.5935 147.084 88.1515 146.94 88.6555 146.652C89.1595 146.346 89.5375 145.932 89.7895 145.41L92.9755 146.328C92.4895 147.498 91.6795 148.434 90.5455 149.136C89.4295 149.838 88.1605 150.189 86.7385 150.189ZM99.8092 147.354L105.074 142.413C106.046 141.495 106.811 140.721 107.369 140.091C107.945 139.461 108.35 138.885 108.584 138.363C108.836 137.823 108.962 137.265 108.962 136.689C108.962 135.897 108.746 135.258 108.314 134.772C107.9 134.268 107.198 134.016 106.208 134.016C105.614 134.016 105.101 134.16 104.669 134.448C104.237 134.718 103.904 135.114 103.67 135.636C103.436 136.158 103.31 136.788 103.292 137.526H99.7822C99.8182 135.996 100.133 134.745 100.727 133.773C101.321 132.801 102.104 132.081 103.076 131.613C104.048 131.145 105.128 130.911 106.316 130.911C107.702 130.911 108.872 131.163 109.826 131.667C110.78 132.153 111.491 132.819 111.959 133.665C112.445 134.511 112.688 135.483 112.688 136.581C112.688 137.391 112.544 138.165 112.256 138.903C111.986 139.641 111.518 140.424 110.852 141.252C110.186 142.08 109.259 143.034 108.071 144.114L104.939 146.949H113.12V150H99.8092V147.354ZM120.467 140.928H131.861V144.006H120.467V140.928ZM143.354 150H139.709V131.1H143.867L149.888 145.248L155.909 131.1H160.067V150H156.422V137.796L151.319 150H148.457L143.354 137.796V150ZM168.211 150.189C166.861 150.189 165.673 149.892 164.647 149.298C163.621 148.704 162.82 147.876 162.244 146.814C161.686 145.752 161.407 144.528 161.407 143.142C161.407 141.81 161.686 140.631 162.244 139.605C162.802 138.579 163.576 137.778 164.566 137.202C165.574 136.608 166.717 136.311 167.995 136.311C169.291 136.311 170.434 136.59 171.424 137.148C172.414 137.706 173.179 138.489 173.719 139.497C174.277 140.487 174.556 141.648 174.556 142.98C174.556 143.178 174.538 143.403 174.502 143.655C174.484 143.889 174.457 144.141 174.421 144.411H165.133C165.205 144.987 165.385 145.482 165.673 145.896C165.979 146.292 166.348 146.607 166.78 146.841C167.23 147.057 167.734 147.165 168.292 147.165C168.958 147.165 169.552 147.03 170.074 146.76C170.614 146.472 171.001 146.103 171.235 145.653L174.313 146.571C173.773 147.723 172.963 148.614 171.883 149.244C170.821 149.874 169.597 150.189 168.211 150.189ZM170.776 141.9C170.758 141.396 170.623 140.946 170.371 140.55C170.119 140.136 169.786 139.821 169.372 139.605C168.958 139.371 168.499 139.254 167.995 139.254C167.545 139.254 167.122 139.371 166.726 139.605C166.33 139.839 165.988 140.154 165.7 140.55C165.43 140.928 165.25 141.378 165.16 141.9H170.776ZM176.388 136.5V132.72H179.898V136.5H182.868V139.551H179.898V145.032C179.898 145.734 180.042 146.229 180.33 146.517C180.636 146.805 181.014 146.958 181.464 146.976C181.932 146.994 182.4 146.967 182.868 146.895V149.865C182.04 150.045 181.23 150.099 180.438 150.027C179.664 149.955 178.971 149.748 178.359 149.406C177.747 149.046 177.261 148.506 176.901 147.786C176.559 147.066 176.388 146.148 176.388 145.032V139.551H174.471V136.5H176.388ZM191.783 150L191.513 148.353C191.063 148.911 190.55 149.352 189.974 149.676C189.416 150 188.66 150.162 187.706 150.162C186.806 150.162 186.014 150.009 185.33 149.703C184.664 149.379 184.142 148.938 183.764 148.38C183.386 147.804 183.197 147.129 183.197 146.355C183.197 145.221 183.602 144.285 184.412 143.547C185.24 142.791 186.482 142.314 188.138 142.116L191.513 141.738V140.793C191.513 140.415 191.342 140.064 191 139.74C190.658 139.416 190.118 139.254 189.38 139.254C188.732 139.254 188.165 139.416 187.679 139.74C187.211 140.046 186.896 140.514 186.734 141.144L183.764 140.064C184.124 138.858 184.808 137.931 185.816 137.283C186.824 136.635 188.066 136.311 189.542 136.311C191.342 136.311 192.692 136.761 193.592 137.661C194.51 138.543 194.969 139.713 194.969 141.171V150H191.783ZM191.513 144.141L188.597 144.519C188.003 144.591 187.553 144.771 187.247 145.059C186.941 145.329 186.788 145.662 186.788 146.058C186.788 146.436 186.941 146.76 187.247 147.03C187.553 147.282 187.985 147.408 188.543 147.408C189.173 147.408 189.704 147.291 190.136 147.057C190.586 146.823 190.928 146.481 191.162 146.031C191.396 145.581 191.513 145.023 191.513 144.357V144.141ZM196.651 130.56H200.107V150H196.651V130.56Z" fill="white"/>
<g clip-path="url(#clip3_598_643)">
<path d="M290.1 147.55L290 147.65L289.89 147.55C285.14 143.24 282 140.39 282 137.5C282 135.5 283.5 134 285.5 134C287.04 134 288.54 135 289.07 136.36H290.93C291.46 135 292.96 134 294.5 134C296.5 134 298 135.5 298 137.5C298 140.39 294.86 143.24 290.1 147.55ZM294.5 132C292.76 132 291.09 132.81 290 134.08C288.91 132.81 287.24 132 285.5 132C282.42 132 280 134.41 280 137.5C280 141.27 283.4 144.36 288.55 149.03L290 150.35L291.45 149.03C296.6 144.36 300 141.27 300 137.5C300 134.41 297.58 132 294.5 132Z" fill="#23FF53"/>
<path d="M290.1 147.55L290 147.65L289.89 147.55C285.14 143.24 282 140.39 282 137.5C282 135.5 283.5 134 285.5 134C287.04 134 288.54 135 289.07 136.36H290.93C291.46 135 292.96 134 294.5 134C296.5 134 298 135.5 298 137.5C298 140.39 294.86 143.24 290.1 147.55Z" fill="#23FF53"/>
</g>
</g>
<g clip-path="url(#clip4_598_643)">
<rect y="167" width="325" height="54" rx="18" fill="#7000FF"/>
<path d="M30.481 204H26.836V185.1H30.994L37.015 199.248L43.036 185.1H47.194V204H43.549V191.796L38.446 204H35.584L30.481 191.796V204ZM61.0625 204H57.9035L57.6605 202.596C57.2285 203.1 56.6975 203.496 56.0675 203.784C55.4555 204.054 54.7985 204.189 54.0965 204.189C53.0525 204.189 52.1525 203.964 51.3965 203.514C50.6405 203.064 50.0555 202.416 49.6415 201.57C49.2275 200.706 49.0205 199.644 49.0205 198.384V190.5H52.5035V197.952C52.5035 198.978 52.7015 199.761 53.0975 200.301C53.5115 200.823 54.1415 201.084 54.9875 201.084C55.8155 201.084 56.4545 200.814 56.9045 200.274C57.3725 199.734 57.6065 198.951 57.6065 197.925V190.5H61.0625V204ZM65.3156 199.599C65.4236 200.049 65.6036 200.391 65.8556 200.625C66.1256 200.859 66.4226 201.03 66.7466 201.138C67.0886 201.228 67.4306 201.273 67.7726 201.273C68.4026 201.273 68.8976 201.156 69.2576 200.922C69.6176 200.67 69.7976 200.355 69.7976 199.977C69.7976 199.653 69.6716 199.401 69.4196 199.221C69.1676 199.023 68.8436 198.879 68.4476 198.789C68.0516 198.681 67.6466 198.573 67.2326 198.465C66.7466 198.339 66.2246 198.204 65.6666 198.06C65.1266 197.898 64.6136 197.673 64.1276 197.385C63.6416 197.097 63.2366 196.728 62.9126 196.278C62.5886 195.81 62.4266 195.225 62.4266 194.523C62.4266 193.695 62.6516 192.966 63.1016 192.336C63.5696 191.706 64.2086 191.211 65.0186 190.851C65.8466 190.491 66.8006 190.311 67.8806 190.311C69.1586 190.311 70.2386 190.581 71.1206 191.121C72.0026 191.661 72.6416 192.435 73.0376 193.443L69.9866 194.307C69.8966 194.055 69.7436 193.848 69.5276 193.686C69.3116 193.524 69.0506 193.407 68.7446 193.335C68.4566 193.263 68.1596 193.227 67.8536 193.227C67.3316 193.227 66.8996 193.335 66.5576 193.551C66.2156 193.749 66.0446 194.028 66.0446 194.388C66.0446 194.604 66.1076 194.784 66.2336 194.928C66.3596 195.054 66.5306 195.162 66.7466 195.252C66.9806 195.342 67.2416 195.423 67.5296 195.495C67.8356 195.567 68.1686 195.648 68.5286 195.738C69.0866 195.882 69.6446 196.053 70.2026 196.251C70.7786 196.431 71.3006 196.665 71.7686 196.953C72.2546 197.241 72.6416 197.628 72.9296 198.114C73.2176 198.6 73.3796 199.212 73.4156 199.95C73.4156 200.742 73.1906 201.462 72.7406 202.11C72.2906 202.74 71.6426 203.244 70.7966 203.622C69.9506 204 68.9246 204.189 67.7186 204.189C66.3146 204.189 65.1176 203.892 64.1276 203.298C63.1556 202.704 62.5166 201.777 62.2106 200.517L65.3156 199.599ZM75.0432 190.5H78.4992V204H75.0432V190.5ZM76.7982 188.772C76.1502 188.772 75.6192 188.574 75.2052 188.178C74.7912 187.764 74.5842 187.26 74.5842 186.666C74.5842 186.072 74.7912 185.577 75.2052 185.181C75.6192 184.767 76.1502 184.56 76.7982 184.56C77.4102 184.56 77.9232 184.767 78.3372 185.181C78.7692 185.577 78.9852 186.072 78.9852 186.666C78.9852 187.26 78.7692 187.764 78.3372 188.178C77.9232 188.574 77.4102 188.772 76.7982 188.772ZM86.7385 204.189C85.4245 204.189 84.2725 203.901 83.2825 203.325C82.2925 202.749 81.5185 201.948 80.9605 200.922C80.4025 199.878 80.1235 198.672 80.1235 197.304C80.1235 195.918 80.4025 194.703 80.9605 193.659C81.5185 192.615 82.3015 191.796 83.3095 191.202C84.3175 190.608 85.4785 190.311 86.7925 190.311C88.2145 190.311 89.4745 190.662 90.5725 191.364C91.6885 192.066 92.4715 193.011 92.9215 194.199L89.7085 195.117C89.4925 194.595 89.1325 194.181 88.6285 193.875C88.1425 193.569 87.5845 193.416 86.9545 193.416C86.3245 193.416 85.7665 193.578 85.2805 193.902C84.8125 194.226 84.4435 194.676 84.1735 195.252C83.9215 195.828 83.7955 196.503 83.7955 197.277C83.7955 198.447 84.0835 199.374 84.6595 200.058C85.2355 200.742 86.0095 201.084 86.9815 201.084C87.5935 201.084 88.1515 200.94 88.6555 200.652C89.1595 200.346 89.5375 199.932 89.7895 199.41L92.9755 200.328C92.4895 201.498 91.6795 202.434 90.5455 203.136C89.4295 203.838 88.1605 204.189 86.7385 204.189ZM100.025 190.446C100.079 189.24 100.385 188.232 100.943 187.422C101.519 186.594 102.284 185.973 103.238 185.559C104.21 185.127 105.326 184.911 106.586 184.911C107.9 184.911 109.016 185.154 109.934 185.64C110.852 186.126 111.554 186.774 112.04 187.584C112.526 188.394 112.769 189.285 112.769 190.257C112.769 190.995 112.616 191.643 112.31 192.201C112.022 192.741 111.644 193.191 111.176 193.551C110.708 193.893 110.24 194.154 109.772 194.334V194.442C110.438 194.64 111.023 194.928 111.527 195.306C112.031 195.684 112.418 196.161 112.688 196.737C112.976 197.313 113.12 198.015 113.12 198.843C113.12 199.905 112.868 200.841 112.364 201.651C111.86 202.443 111.131 203.064 110.177 203.514C109.241 203.964 108.089 204.189 106.721 204.189C105.371 204.189 104.183 203.991 103.157 203.595C102.131 203.199 101.321 202.569 100.727 201.705C100.133 200.823 99.8092 199.662 99.7552 198.222H103.319C103.355 199.194 103.634 199.914 104.156 200.382C104.678 200.85 105.506 201.084 106.64 201.084C107.288 201.084 107.819 200.985 108.233 200.787C108.647 200.589 108.953 200.301 109.151 199.923C109.349 199.545 109.448 199.086 109.448 198.546C109.448 197.502 109.106 196.809 108.422 196.467C107.756 196.125 106.703 195.954 105.263 195.954H104.507V193.038H105.29C106.046 193.02 106.712 192.948 107.288 192.822C107.864 192.678 108.305 192.444 108.611 192.12C108.935 191.778 109.097 191.31 109.097 190.716C109.097 189.942 108.881 189.303 108.449 188.799C108.017 188.277 107.36 188.016 106.478 188.016C105.83 188.016 105.308 188.133 104.912 188.367C104.516 188.601 104.201 188.898 103.967 189.258C103.751 189.618 103.625 190.014 103.589 190.446H100.025ZM120.546 194.928H131.94V198.006H120.546V194.928ZM150.615 190.932C150.615 190.086 150.354 189.411 149.832 188.907C149.328 188.403 148.536 188.151 147.456 188.151H143.433V193.74H147.456C148.176 193.74 148.77 193.632 149.238 193.416C149.706 193.182 150.048 192.858 150.264 192.444C150.498 192.012 150.615 191.508 150.615 190.932ZM147.564 185.1C149.094 185.1 150.354 185.37 151.344 185.91C152.352 186.432 153.099 187.143 153.585 188.043C154.089 188.925 154.341 189.888 154.341 190.932C154.341 191.634 154.215 192.336 153.963 193.038C153.711 193.722 153.315 194.352 152.775 194.928C152.235 195.486 151.533 195.936 150.669 196.278C149.823 196.62 148.788 196.791 147.564 196.791H143.433V204H139.788V185.1H147.564ZM149.616 195.576L154.719 204H150.642L145.755 195.576H149.616ZM163.798 204L163.528 202.353C163.078 202.911 162.565 203.352 161.989 203.676C161.431 204 160.675 204.162 159.721 204.162C158.821 204.162 158.029 204.009 157.345 203.703C156.679 203.379 156.157 202.938 155.779 202.38C155.401 201.804 155.212 201.129 155.212 200.355C155.212 199.221 155.617 198.285 156.427 197.547C157.255 196.791 158.497 196.314 160.153 196.116L163.528 195.738V194.793C163.528 194.415 163.357 194.064 163.015 193.74C162.673 193.416 162.133 193.254 161.395 193.254C160.747 193.254 160.18 193.416 159.694 193.74C159.226 194.046 158.911 194.514 158.749 195.144L155.779 194.064C156.139 192.858 156.823 191.931 157.831 191.283C158.839 190.635 160.081 190.311 161.557 190.311C163.357 190.311 164.707 190.761 165.607 191.661C166.525 192.543 166.984 193.713 166.984 195.171V204H163.798ZM163.528 198.141L160.612 198.519C160.018 198.591 159.568 198.771 159.262 199.059C158.956 199.329 158.803 199.662 158.803 200.058C158.803 200.436 158.956 200.76 159.262 201.03C159.568 201.282 160 201.408 160.558 201.408C161.188 201.408 161.719 201.291 162.151 201.057C162.601 200.823 162.943 200.481 163.177 200.031C163.411 199.581 163.528 199.023 163.528 198.357V198.141ZM171.69 201.975L172.122 201.921V209.4H168.666V190.5H171.798L172.014 192.174C172.41 191.652 172.968 191.211 173.688 190.851C174.408 190.491 175.236 190.311 176.172 190.311C177.342 190.311 178.377 190.599 179.277 191.175C180.177 191.751 180.879 192.561 181.383 193.605C181.905 194.631 182.166 195.846 182.166 197.25C182.166 198.654 181.905 199.878 181.383 200.922C180.879 201.966 180.177 202.776 179.277 203.352C178.395 203.91 177.36 204.189 176.172 204.189C175.128 204.189 174.219 203.973 173.445 203.541C172.689 203.109 172.104 202.587 171.69 201.975ZM178.44 197.25C178.44 196.116 178.143 195.207 177.549 194.523C176.973 193.821 176.217 193.47 175.281 193.47C174.705 193.47 174.174 193.623 173.688 193.929C173.22 194.217 172.842 194.64 172.554 195.198C172.266 195.738 172.122 196.422 172.122 197.25C172.122 198.06 172.266 198.744 172.554 199.302C172.842 199.86 173.22 200.292 173.688 200.598C174.174 200.886 174.705 201.03 175.281 201.03C176.217 201.03 176.973 200.688 177.549 200.004C178.143 199.302 178.44 198.384 178.44 197.25Z" fill="white"/>
<g clip-path="url(#clip5_598_643)">
<path d="M290.1 201.55L290 201.65L289.89 201.55C285.14 197.24 282 194.39 282 191.5C282 189.5 283.5 188 285.5 188C287.04 188 288.54 189 289.07 190.36H290.93C291.46 189 292.96 188 294.5 188C296.5 188 298 189.5 298 191.5C298 194.39 294.86 197.24 290.1 201.55ZM294.5 186C292.76 186 291.09 186.81 290 188.08C288.91 186.81 287.24 186 285.5 186C282.42 186 280 188.41 280 191.5C280 195.27 283.4 198.36 288.55 203.03L290 204.35L291.45 203.03C296.6 198.36 300 195.27 300 191.5C300 188.41 297.58 186 294.5 186Z" fill="#23FF53"/>
<path d="M290.1 201.55L290 201.65L289.89 201.55C285.14 197.24 282 194.39 282 191.5C282 189.5 283.5 188 285.5 188C287.04 188 288.54 189 289.07 190.36H290.93C291.46 189 292.96 188 294.5 188C296.5 188 298 189.5 298 191.5C298 194.39 294.86 197.24 290.1 201.55Z" fill="#23FF53"/>
</g>
</g>
<g clip-path="url(#clip6_598_643)">
<rect y="221" width="325" height="54" rx="18" fill="#7000FF"/>
<path d="M30.481 258H26.836V239.1H30.994L37.015 253.248L43.036 239.1H47.194V258H43.549V245.796L38.446 258H35.584L30.481 245.796V258ZM61.0625 258H57.9035L57.6605 256.596C57.2285 257.1 56.6975 257.496 56.0675 257.784C55.4555 258.054 54.7985 258.189 54.0965 258.189C53.0525 258.189 52.1525 257.964 51.3965 257.514C50.6405 257.064 50.0555 256.416 49.6415 255.57C49.2275 254.706 49.0205 253.644 49.0205 252.384V244.5H52.5035V251.952C52.5035 252.978 52.7015 253.761 53.0975 254.301C53.5115 254.823 54.1415 255.084 54.9875 255.084C55.8155 255.084 56.4545 254.814 56.9045 254.274C57.3725 253.734 57.6065 252.951 57.6065 251.925V244.5H61.0625V258ZM65.3156 253.599C65.4236 254.049 65.6036 254.391 65.8556 254.625C66.1256 254.859 66.4226 255.03 66.7466 255.138C67.0886 255.228 67.4306 255.273 67.7726 255.273C68.4026 255.273 68.8976 255.156 69.2576 254.922C69.6176 254.67 69.7976 254.355 69.7976 253.977C69.7976 253.653 69.6716 253.401 69.4196 253.221C69.1676 253.023 68.8436 252.879 68.4476 252.789C68.0516 252.681 67.6466 252.573 67.2326 252.465C66.7466 252.339 66.2246 252.204 65.6666 252.06C65.1266 251.898 64.6136 251.673 64.1276 251.385C63.6416 251.097 63.2366 250.728 62.9126 250.278C62.5886 249.81 62.4266 249.225 62.4266 248.523C62.4266 247.695 62.6516 246.966 63.1016 246.336C63.5696 245.706 64.2086 245.211 65.0186 244.851C65.8466 244.491 66.8006 244.311 67.8806 244.311C69.1586 244.311 70.2386 244.581 71.1206 245.121C72.0026 245.661 72.6416 246.435 73.0376 247.443L69.9866 248.307C69.8966 248.055 69.7436 247.848 69.5276 247.686C69.3116 247.524 69.0506 247.407 68.7446 247.335C68.4566 247.263 68.1596 247.227 67.8536 247.227C67.3316 247.227 66.8996 247.335 66.5576 247.551C66.2156 247.749 66.0446 248.028 66.0446 248.388C66.0446 248.604 66.1076 248.784 66.2336 248.928C66.3596 249.054 66.5306 249.162 66.7466 249.252C66.9806 249.342 67.2416 249.423 67.5296 249.495C67.8356 249.567 68.1686 249.648 68.5286 249.738C69.0866 249.882 69.6446 250.053 70.2026 250.251C70.7786 250.431 71.3006 250.665 71.7686 250.953C72.2546 251.241 72.6416 251.628 72.9296 252.114C73.2176 252.6 73.3796 253.212 73.4156 253.95C73.4156 254.742 73.1906 255.462 72.7406 256.11C72.2906 256.74 71.6426 257.244 70.7966 257.622C69.9506 258 68.9246 258.189 67.7186 258.189C66.3146 258.189 65.1176 257.892 64.1276 257.298C63.1556 256.704 62.5166 255.777 62.2106 254.517L65.3156 253.599ZM75.0432 244.5H78.4992V258H75.0432V244.5ZM76.7982 242.772C76.1502 242.772 75.6192 242.574 75.2052 242.178C74.7912 241.764 74.5842 241.26 74.5842 240.666C74.5842 240.072 74.7912 239.577 75.2052 239.181C75.6192 238.767 76.1502 238.56 76.7982 238.56C77.4102 238.56 77.9232 238.767 78.3372 239.181C78.7692 239.577 78.9852 240.072 78.9852 240.666C78.9852 241.26 78.7692 241.764 78.3372 242.178C77.9232 242.574 77.4102 242.772 76.7982 242.772ZM86.7385 258.189C85.4245 258.189 84.2725 257.901 83.2825 257.325C82.2925 256.749 81.5185 255.948 80.9605 254.922C80.4025 253.878 80.1235 252.672 80.1235 251.304C80.1235 249.918 80.4025 248.703 80.9605 247.659C81.5185 246.615 82.3015 245.796 83.3095 245.202C84.3175 244.608 85.4785 244.311 86.7925 244.311C88.2145 244.311 89.4745 244.662 90.5725 245.364C91.6885 246.066 92.4715 247.011 92.9215 248.199L89.7085 249.117C89.4925 248.595 89.1325 248.181 88.6285 247.875C88.1425 247.569 87.5845 247.416 86.9545 247.416C86.3245 247.416 85.7665 247.578 85.2805 247.902C84.8125 248.226 84.4435 248.676 84.1735 249.252C83.9215 249.828 83.7955 250.503 83.7955 251.277C83.7955 252.447 84.0835 253.374 84.6595 254.058C85.2355 254.742 86.0095 255.084 86.9815 255.084C87.5935 255.084 88.1515 254.94 88.6555 254.652C89.1595 254.346 89.5375 253.932 89.7895 253.41L92.9755 254.328C92.4895 255.498 91.6795 256.434 90.5455 257.136C89.4295 257.838 88.1605 258.189 86.7385 258.189ZM108.962 254.004H99.4582V251.25L108.314 239.1H112.607V250.953H114.983V254.004H112.607V258H108.962V254.004ZM109.124 250.953V242.988L103.481 250.953H109.124ZM122.181 248.928H133.575V252.006H122.181V248.928ZM152.25 244.932C152.25 244.086 151.989 243.411 151.467 242.907C150.963 242.403 150.171 242.151 149.091 242.151H145.068V247.74H149.091C149.811 247.74 150.405 247.632 150.873 247.416C151.341 247.182 151.683 246.858 151.899 246.444C152.133 246.012 152.25 245.508 152.25 244.932ZM149.199 239.1C150.729 239.1 151.989 239.37 152.979 239.91C153.987 240.432 154.734 241.143 155.22 242.043C155.724 242.925 155.976 243.888 155.976 244.932C155.976 245.634 155.85 246.336 155.598 247.038C155.346 247.722 154.95 248.352 154.41 248.928C153.87 249.486 153.168 249.936 152.304 250.278C151.458 250.62 150.423 250.791 149.199 250.791H145.068V258H141.423V239.1H149.199ZM151.251 249.576L156.354 258H152.277L147.39 249.576H151.251ZM163.623 258.189C162.309 258.189 161.139 257.91 160.113 257.352C159.087 256.776 158.277 255.975 157.683 254.949C157.107 253.905 156.819 252.681 156.819 251.277C156.819 249.855 157.116 248.622 157.71 247.578C158.322 246.534 159.15 245.733 160.194 245.175C161.238 244.599 162.408 244.311 163.704 244.311C165 244.311 166.17 244.599 167.214 245.175C168.258 245.733 169.086 246.534 169.698 247.578C170.31 248.604 170.616 249.819 170.616 251.223C170.616 252.645 170.301 253.878 169.671 254.922C169.059 255.966 168.222 256.776 167.16 257.352C166.116 257.91 164.937 258.189 163.623 258.189ZM163.596 255.084C164.154 255.084 164.685 254.949 165.189 254.679C165.693 254.391 166.107 253.968 166.431 253.41C166.755 252.834 166.917 252.105 166.917 251.223C166.917 250.377 166.764 249.675 166.458 249.117C166.152 248.541 165.747 248.118 165.243 247.848C164.757 247.56 164.226 247.416 163.65 247.416C163.092 247.416 162.57 247.56 162.084 247.848C161.616 248.118 161.238 248.541 160.95 249.117C160.68 249.675 160.545 250.395 160.545 251.277C160.545 252.123 160.68 252.834 160.95 253.41C161.22 253.968 161.589 254.391 162.057 254.679C162.525 254.949 163.038 255.084 163.596 255.084ZM177.717 258.189C176.403 258.189 175.251 257.901 174.261 257.325C173.271 256.749 172.497 255.948 171.939 254.922C171.381 253.878 171.102 252.672 171.102 251.304C171.102 249.918 171.381 248.703 171.939 247.659C172.497 246.615 173.28 245.796 174.288 245.202C175.296 244.608 176.457 244.311 177.771 244.311C179.193 244.311 180.453 244.662 181.551 245.364C182.667 246.066 183.45 247.011 183.9 248.199L180.687 249.117C180.471 248.595 180.111 248.181 179.607 247.875C179.121 247.569 178.563 247.416 177.933 247.416C177.303 247.416 176.745 247.578 176.259 247.902C175.791 248.226 175.422 248.676 175.152 249.252C174.9 249.828 174.774 250.503 174.774 251.277C174.774 252.447 175.062 253.374 175.638 254.058C176.214 254.742 176.988 255.084 177.96 255.084C178.572 255.084 179.13 254.94 179.634 254.652C180.138 254.346 180.516 253.932 180.768 253.41L183.954 254.328C183.468 255.498 182.658 256.434 181.524 257.136C180.408 257.838 179.139 258.189 177.717 258.189ZM185.11 238.56H188.593V249.765H189.457L193.912 244.5H198.448L192.481 251.196L198.475 258H193.939L189.43 252.654H188.593V258H185.11V238.56Z" fill="white"/>
<g clip-path="url(#clip7_598_643)">
<path d="M290.1 255.55L290 255.65L289.89 255.55C285.14 251.24 282 248.39 282 245.5C282 243.5 283.5 242 285.5 242C287.04 242 288.54 243 289.07 244.36H290.93C291.46 243 292.96 242 294.5 242C296.5 242 298 243.5 298 245.5C298 248.39 294.86 251.24 290.1 255.55ZM294.5 240C292.76 240 291.09 240.81 290 242.08C288.91 240.81 287.24 240 285.5 240C282.42 240 280 242.41 280 245.5C280 249.27 283.4 252.36 288.55 257.03L290 258.35L291.45 257.03C296.6 252.36 300 249.27 300 245.5C300 242.41 297.58 240 294.5 240Z" fill="#23FF53"/>
<path d="M290.1 255.55L290 255.65L289.89 255.55C285.14 251.24 282 248.39 282 245.5C282 243.5 283.5 242 285.5 242C287.04 242 288.54 243 289.07 244.36H290.93C291.46 243 292.96 242 294.5 242C296.5 242 298 243.5 298 245.5C298 248.39 294.86 251.24 290.1 255.55Z" fill="#23FF53"/>
</g>
</g>
<g clip-path="url(#clip8_598_643)">
<rect y="275" width="325" height="54" rx="18" fill="#7000FF"/>
<path d="M30.481 312H26.836V293.1H30.994L37.015 307.248L43.036 293.1H47.194V312H43.549V299.796L38.446 312H35.584L30.481 299.796V312ZM61.0625 312H57.9035L57.6605 310.596C57.2285 311.1 56.6975 311.496 56.0675 311.784C55.4555 312.054 54.7985 312.189 54.0965 312.189C53.0525 312.189 52.1525 311.964 51.3965 311.514C50.6405 311.064 50.0555 310.416 49.6415 309.57C49.2275 308.706 49.0205 307.644 49.0205 306.384V298.5H52.5035V305.952C52.5035 306.978 52.7015 307.761 53.0975 308.301C53.5115 308.823 54.1415 309.084 54.9875 309.084C55.8155 309.084 56.4545 308.814 56.9045 308.274C57.3725 307.734 57.6065 306.951 57.6065 305.925V298.5H61.0625V312ZM65.3156 307.599C65.4236 308.049 65.6036 308.391 65.8556 308.625C66.1256 308.859 66.4226 309.03 66.7466 309.138C67.0886 309.228 67.4306 309.273 67.7726 309.273C68.4026 309.273 68.8976 309.156 69.2576 308.922C69.6176 308.67 69.7976 308.355 69.7976 307.977C69.7976 307.653 69.6716 307.401 69.4196 307.221C69.1676 307.023 68.8436 306.879 68.4476 306.789C68.0516 306.681 67.6466 306.573 67.2326 306.465C66.7466 306.339 66.2246 306.204 65.6666 306.06C65.1266 305.898 64.6136 305.673 64.1276 305.385C63.6416 305.097 63.2366 304.728 62.9126 304.278C62.5886 303.81 62.4266 303.225 62.4266 302.523C62.4266 301.695 62.6516 300.966 63.1016 300.336C63.5696 299.706 64.2086 299.211 65.0186 298.851C65.8466 298.491 66.8006 298.311 67.8806 298.311C69.1586 298.311 70.2386 298.581 71.1206 299.121C72.0026 299.661 72.6416 300.435 73.0376 301.443L69.9866 302.307C69.8966 302.055 69.7436 301.848 69.5276 301.686C69.3116 301.524 69.0506 301.407 68.7446 301.335C68.4566 301.263 68.1596 301.227 67.8536 301.227C67.3316 301.227 66.8996 301.335 66.5576 301.551C66.2156 301.749 66.0446 302.028 66.0446 302.388C66.0446 302.604 66.1076 302.784 66.2336 302.928C66.3596 303.054 66.5306 303.162 66.7466 303.252C66.9806 303.342 67.2416 303.423 67.5296 303.495C67.8356 303.567 68.1686 303.648 68.5286 303.738C69.0866 303.882 69.6446 304.053 70.2026 304.251C70.7786 304.431 71.3006 304.665 71.7686 304.953C72.2546 305.241 72.6416 305.628 72.9296 306.114C73.2176 306.6 73.3796 307.212 73.4156 307.95C73.4156 308.742 73.1906 309.462 72.7406 310.11C72.2906 310.74 71.6426 311.244 70.7966 311.622C69.9506 312 68.9246 312.189 67.7186 312.189C66.3146 312.189 65.1176 311.892 64.1276 311.298C63.1556 310.704 62.5166 309.777 62.2106 308.517L65.3156 307.599ZM75.0432 298.5H78.4992V312H75.0432V298.5ZM76.7982 296.772C76.1502 296.772 75.6192 296.574 75.2052 296.178C74.7912 295.764 74.5842 295.26 74.5842 294.666C74.5842 294.072 74.7912 293.577 75.2052 293.181C75.6192 292.767 76.1502 292.56 76.7982 292.56C77.4102 292.56 77.9232 292.767 78.3372 293.181C78.7692 293.577 78.9852 294.072 78.9852 294.666C78.9852 295.26 78.7692 295.764 78.3372 296.178C77.9232 296.574 77.4102 296.772 76.7982 296.772ZM86.7385 312.189C85.4245 312.189 84.2725 311.901 83.2825 311.325C82.2925 310.749 81.5185 309.948 80.9605 308.922C80.4025 307.878 80.1235 306.672 80.1235 305.304C80.1235 303.918 80.4025 302.703 80.9605 301.659C81.5185 300.615 82.3015 299.796 83.3095 299.202C84.3175 298.608 85.4785 298.311 86.7925 298.311C88.2145 298.311 89.4745 298.662 90.5725 299.364C91.6885 300.066 92.4715 301.011 92.9215 302.199L89.7085 303.117C89.4925 302.595 89.1325 302.181 88.6285 301.875C88.1425 301.569 87.5845 301.416 86.9545 301.416C86.3245 301.416 85.7665 301.578 85.2805 301.902C84.8125 302.226 84.4435 302.676 84.1735 303.252C83.9215 303.828 83.7955 304.503 83.7955 305.277C83.7955 306.447 84.0835 307.374 84.6595 308.058C85.2355 308.742 86.0095 309.084 86.9815 309.084C87.5935 309.084 88.1515 308.94 88.6555 308.652C89.1595 308.346 89.5375 307.932 89.7895 307.41L92.9755 308.328C92.4895 309.498 91.6795 310.434 90.5455 311.136C89.4295 311.838 88.1605 312.189 86.7385 312.189ZM112.499 293.1V296.151H103.994V300.687C104.354 300.237 104.831 299.877 105.425 299.607C106.037 299.337 106.766 299.202 107.612 299.202C108.728 299.202 109.682 299.4 110.474 299.796C111.266 300.192 111.905 300.705 112.391 301.335C112.895 301.947 113.255 302.622 113.471 303.36C113.705 304.098 113.822 304.809 113.822 305.493C113.822 306.789 113.543 307.941 112.985 308.949C112.445 309.957 111.662 310.749 110.636 311.325C109.628 311.901 108.413 312.189 106.991 312.189C105.587 312.189 104.381 311.955 103.373 311.487C102.383 311.001 101.6 310.344 101.024 309.516C100.466 308.688 100.124 307.743 99.9982 306.681H103.562C103.724 307.383 104.093 307.959 104.669 308.409C105.245 308.859 106.001 309.084 106.937 309.084C107.675 309.084 108.269 308.94 108.719 308.652C109.187 308.364 109.538 307.959 109.772 307.437C110.006 306.897 110.123 306.258 110.123 305.52C110.123 304.476 109.844 303.666 109.286 303.09C108.728 302.514 107.936 302.226 106.91 302.226C106.136 302.226 105.488 302.433 104.966 302.847C104.444 303.243 104.075 303.756 103.859 304.386H100.349V293.1H112.499ZM121.179 302.928H132.573V306.006H121.179V302.928ZM151.248 298.932C151.248 298.086 150.987 297.411 150.465 296.907C149.961 296.403 149.169 296.151 148.089 296.151H144.066V301.74H148.089C148.809 301.74 149.403 301.632 149.871 301.416C150.339 301.182 150.681 300.858 150.897 300.444C151.131 300.012 151.248 299.508 151.248 298.932ZM148.197 293.1C149.727 293.1 150.987 293.37 151.977 293.91C152.985 294.432 153.732 295.143 154.218 296.043C154.722 296.925 154.974 297.888 154.974 298.932C154.974 299.634 154.848 300.336 154.596 301.038C154.344 301.722 153.948 302.352 153.408 302.928C152.868 303.486 152.166 303.936 151.302 304.278C150.456 304.62 149.421 304.791 148.197 304.791H144.066V312H140.421V293.1H148.197ZM150.249 303.576L155.352 312H151.275L146.388 303.576H150.249ZM162.621 312.189C161.307 312.189 160.137 311.91 159.111 311.352C158.085 310.776 157.275 309.975 156.681 308.949C156.105 307.905 155.817 306.681 155.817 305.277C155.817 303.855 156.114 302.622 156.708 301.578C157.32 300.534 158.148 299.733 159.192 299.175C160.236 298.599 161.406 298.311 162.702 298.311C163.998 298.311 165.168 298.599 166.212 299.175C167.256 299.733 168.084 300.534 168.696 301.578C169.308 302.604 169.614 303.819 169.614 305.223C169.614 306.645 169.299 307.878 168.669 308.922C168.057 309.966 167.22 310.776 166.158 311.352C165.114 311.91 163.935 312.189 162.621 312.189ZM162.594 309.084C163.152 309.084 163.683 308.949 164.187 308.679C164.691 308.391 165.105 307.968 165.429 307.41C165.753 306.834 165.915 306.105 165.915 305.223C165.915 304.377 165.762 303.675 165.456 303.117C165.15 302.541 164.745 302.118 164.241 301.848C163.755 301.56 163.224 301.416 162.648 301.416C162.09 301.416 161.568 301.56 161.082 301.848C160.614 302.118 160.236 302.541 159.948 303.117C159.678 303.675 159.543 304.395 159.543 305.277C159.543 306.123 159.678 306.834 159.948 307.41C160.218 307.968 160.587 308.391 161.055 308.679C161.523 308.949 162.036 309.084 162.594 309.084ZM176.715 312.189C175.401 312.189 174.249 311.901 173.259 311.325C172.269 310.749 171.495 309.948 170.937 308.922C170.379 307.878 170.1 306.672 170.1 305.304C170.1 303.918 170.379 302.703 170.937 301.659C171.495 300.615 172.278 299.796 173.286 299.202C174.294 298.608 175.455 298.311 176.769 298.311C178.191 298.311 179.451 298.662 180.549 299.364C181.665 300.066 182.448 301.011 182.898 302.199L179.685 303.117C179.469 302.595 179.109 302.181 178.605 301.875C178.119 301.569 177.561 301.416 176.931 301.416C176.301 301.416 175.743 301.578 175.257 301.902C174.789 302.226 174.42 302.676 174.15 303.252C173.898 303.828 173.772 304.503 173.772 305.277C173.772 306.447 174.06 307.374 174.636 308.058C175.212 308.742 175.986 309.084 176.958 309.084C177.57 309.084 178.128 308.94 178.632 308.652C179.136 308.346 179.514 307.932 179.766 307.41L182.952 308.328C182.466 309.498 181.656 310.434 180.522 311.136C179.406 311.838 178.137 312.189 176.715 312.189ZM184.108 292.56H187.591V303.765H188.455L192.91 298.5H197.446L191.479 305.196L197.473 312H192.937L188.428 306.654H187.591V312H184.108V292.56Z" fill="white"/>
<g clip-path="url(#clip9_598_643)">
<path d="M290.1 309.55L290 309.65L289.89 309.55C285.14 305.24 282 302.39 282 299.5C282 297.5 283.5 296 285.5 296C287.04 296 288.54 297 289.07 298.36H290.93C291.46 297 292.96 296 294.5 296C296.5 296 298 297.5 298 299.5C298 302.39 294.86 305.24 290.1 309.55ZM294.5 294C292.76 294 291.09 294.81 290 296.08C288.91 294.81 287.24 294 285.5 294C282.42 294 280 296.41 280 299.5C280 303.27 283.4 306.36 288.55 311.03L290 312.35L291.45 311.03C296.6 306.36 300 303.27 300 299.5C300 296.41 297.58 294 294.5 294Z" fill="#23FF53"/>
<path d="M290.1 309.55L290 309.65L289.89 309.55C285.14 305.24 282 302.39 282 299.5C282 297.5 283.5 296 285.5 296C287.04 296 288.54 297 289.07 298.36H290.93C291.46 297 292.96 296 294.5 296C296.5 296 298 297.5 298 299.5C298 302.39 294.86 305.24 290.1 309.55Z" fill="#23FF53"/>
</g>
</g>
<g clip-path="url(#clip10_598_643)">
<rect y="329" width="325" height="54" rx="18" fill="#7000FF"/>
<path d="M30.481 366H26.836V347.1H30.994L37.015 361.248L43.036 347.1H47.194V366H43.549V353.796L38.446 366H35.584L30.481 353.796V366ZM61.0625 366H57.9035L57.6605 364.596C57.2285 365.1 56.6975 365.496 56.0675 365.784C55.4555 366.054 54.7985 366.189 54.0965 366.189C53.0525 366.189 52.1525 365.964 51.3965 365.514C50.6405 365.064 50.0555 364.416 49.6415 363.57C49.2275 362.706 49.0205 361.644 49.0205 360.384V352.5H52.5035V359.952C52.5035 360.978 52.7015 361.761 53.0975 362.301C53.5115 362.823 54.1415 363.084 54.9875 363.084C55.8155 363.084 56.4545 362.814 56.9045 362.274C57.3725 361.734 57.6065 360.951 57.6065 359.925V352.5H61.0625V366ZM65.3156 361.599C65.4236 362.049 65.6036 362.391 65.8556 362.625C66.1256 362.859 66.4226 363.03 66.7466 363.138C67.0886 363.228 67.4306 363.273 67.7726 363.273C68.4026 363.273 68.8976 363.156 69.2576 362.922C69.6176 362.67 69.7976 362.355 69.7976 361.977C69.7976 361.653 69.6716 361.401 69.4196 361.221C69.1676 361.023 68.8436 360.879 68.4476 360.789C68.0516 360.681 67.6466 360.573 67.2326 360.465C66.7466 360.339 66.2246 360.204 65.6666 360.06C65.1266 359.898 64.6136 359.673 64.1276 359.385C63.6416 359.097 63.2366 358.728 62.9126 358.278C62.5886 357.81 62.4266 357.225 62.4266 356.523C62.4266 355.695 62.6516 354.966 63.1016 354.336C63.5696 353.706 64.2086 353.211 65.0186 352.851C65.8466 352.491 66.8006 352.311 67.8806 352.311C69.1586 352.311 70.2386 352.581 71.1206 353.121C72.0026 353.661 72.6416 354.435 73.0376 355.443L69.9866 356.307C69.8966 356.055 69.7436 355.848 69.5276 355.686C69.3116 355.524 69.0506 355.407 68.7446 355.335C68.4566 355.263 68.1596 355.227 67.8536 355.227C67.3316 355.227 66.8996 355.335 66.5576 355.551C66.2156 355.749 66.0446 356.028 66.0446 356.388C66.0446 356.604 66.1076 356.784 66.2336 356.928C66.3596 357.054 66.5306 357.162 66.7466 357.252C66.9806 357.342 67.2416 357.423 67.5296 357.495C67.8356 357.567 68.1686 357.648 68.5286 357.738C69.0866 357.882 69.6446 358.053 70.2026 358.251C70.7786 358.431 71.3006 358.665 71.7686 358.953C72.2546 359.241 72.6416 359.628 72.9296 360.114C73.2176 360.6 73.3796 361.212 73.4156 361.95C73.4156 362.742 73.1906 363.462 72.7406 364.11C72.2906 364.74 71.6426 365.244 70.7966 365.622C69.9506 366 68.9246 366.189 67.7186 366.189C66.3146 366.189 65.1176 365.892 64.1276 365.298C63.1556 364.704 62.5166 363.777 62.2106 362.517L65.3156 361.599ZM75.0432 352.5H78.4992V366H75.0432V352.5ZM76.7982 350.772C76.1502 350.772 75.6192 350.574 75.2052 350.178C74.7912 349.764 74.5842 349.26 74.5842 348.666C74.5842 348.072 74.7912 347.577 75.2052 347.181C75.6192 346.767 76.1502 346.56 76.7982 346.56C77.4102 346.56 77.9232 346.767 78.3372 347.181C78.7692 347.577 78.9852 348.072 78.9852 348.666C78.9852 349.26 78.7692 349.764 78.3372 350.178C77.9232 350.574 77.4102 350.772 76.7982 350.772ZM86.7385 366.189C85.4245 366.189 84.2725 365.901 83.2825 365.325C82.2925 364.749 81.5185 363.948 80.9605 362.922C80.4025 361.878 80.1235 360.672 80.1235 359.304C80.1235 357.918 80.4025 356.703 80.9605 355.659C81.5185 354.615 82.3015 353.796 83.3095 353.202C84.3175 352.608 85.4785 352.311 86.7925 352.311C88.2145 352.311 89.4745 352.662 90.5725 353.364C91.6885 354.066 92.4715 355.011 92.9215 356.199L89.7085 357.117C89.4925 356.595 89.1325 356.181 88.6285 355.875C88.1425 355.569 87.5845 355.416 86.9545 355.416C86.3245 355.416 85.7665 355.578 85.2805 355.902C84.8125 356.226 84.4435 356.676 84.1735 357.252C83.9215 357.828 83.7955 358.503 83.7955 359.277C83.7955 360.447 84.0835 361.374 84.6595 362.058C85.2355 362.742 86.0095 363.084 86.9815 363.084C87.5935 363.084 88.1515 362.94 88.6555 362.652C89.1595 362.346 89.5375 361.932 89.7895 361.41L92.9755 362.328C92.4895 363.498 91.6795 364.434 90.5455 365.136C89.4295 365.838 88.1605 366.189 86.7385 366.189ZM106.883 366.189C105.533 366.189 104.318 365.901 103.238 365.325C102.158 364.749 101.312 363.957 100.7 362.949C100.088 361.941 99.7822 360.789 99.7822 359.493C99.7822 358.485 99.9892 357.468 100.403 356.442C100.817 355.416 101.438 354.363 102.266 353.283L107.045 347.1H111.041L105.425 354.255L101.915 357.981C102.239 356.559 102.905 355.434 103.913 354.606C104.921 353.76 106.136 353.337 107.558 353.337C108.764 353.337 109.844 353.598 110.798 354.12C111.77 354.624 112.535 355.344 113.093 356.28C113.669 357.198 113.957 358.296 113.957 359.574C113.957 360.852 113.633 361.995 112.985 363.003C112.355 363.993 111.509 364.776 110.447 365.352C109.385 365.91 108.197 366.189 106.883 366.189ZM103.481 359.574C103.481 360.276 103.616 360.897 103.886 361.437C104.156 361.959 104.543 362.364 105.047 362.652C105.551 362.94 106.163 363.084 106.883 363.084C107.603 363.084 108.206 362.94 108.692 362.652C109.196 362.364 109.574 361.959 109.826 361.437C110.096 360.897 110.231 360.276 110.231 359.574C110.231 358.854 110.096 358.242 109.826 357.738C109.574 357.216 109.196 356.82 108.692 356.55C108.206 356.262 107.603 356.118 106.883 356.118C106.163 356.118 105.551 356.262 105.047 356.55C104.543 356.82 104.156 357.216 103.886 357.738C103.616 358.242 103.481 358.854 103.481 359.574ZM121.02 356.928H132.414V360.006H121.02V356.928ZM147.93 355.74C148.65 355.74 149.244 355.632 149.712 355.416C150.18 355.182 150.522 354.858 150.738 354.444C150.972 354.012 151.089 353.508 151.089 352.932C151.089 352.05 150.828 351.366 150.306 350.88C149.802 350.394 149.01 350.151 147.93 350.151H143.907V355.74H147.93ZM154.815 352.932C154.815 353.634 154.689 354.336 154.437 355.038C154.185 355.722 153.789 356.352 153.249 356.928C152.709 357.486 152.007 357.936 151.143 358.278C150.297 358.62 149.262 358.791 148.038 358.791H143.907V366H140.262V347.1H148.038C149.568 347.1 150.828 347.37 151.818 347.91C152.826 348.432 153.573 349.143 154.059 350.043C154.563 350.925 154.815 351.888 154.815 352.932ZM160.855 366.189C159.541 366.189 158.371 365.91 157.345 365.352C156.319 364.776 155.509 363.975 154.915 362.949C154.339 361.905 154.051 360.681 154.051 359.277C154.051 357.855 154.348 356.622 154.942 355.578C155.554 354.534 156.382 353.733 157.426 353.175C158.47 352.599 159.64 352.311 160.936 352.311C162.232 352.311 163.402 352.599 164.446 353.175C165.49 353.733 166.318 354.534 166.93 355.578C167.542 356.604 167.848 357.819 167.848 359.223C167.848 360.645 167.533 361.878 166.903 362.922C166.291 363.966 165.454 364.776 164.392 365.352C163.348 365.91 162.169 366.189 160.855 366.189ZM160.828 363.084C161.386 363.084 161.917 362.949 162.421 362.679C162.925 362.391 163.339 361.968 163.663 361.41C163.987 360.834 164.149 360.105 164.149 359.223C164.149 358.377 163.996 357.675 163.69 357.117C163.384 356.541 162.979 356.118 162.475 355.848C161.989 355.56 161.458 355.416 160.882 355.416C160.324 355.416 159.802 355.56 159.316 355.848C158.848 356.118 158.47 356.541 158.182 357.117C157.912 357.675 157.777 358.395 157.777 359.277C157.777 360.123 157.912 360.834 158.182 361.41C158.452 361.968 158.821 362.391 159.289 362.679C159.757 362.949 160.27 363.084 160.828 363.084ZM172.032 363.975L172.464 363.921V371.4H169.008V352.5H172.14L172.356 354.174C172.752 353.652 173.31 353.211 174.03 352.851C174.75 352.491 175.578 352.311 176.514 352.311C177.684 352.311 178.719 352.599 179.619 353.175C180.519 353.751 181.221 354.561 181.725 355.605C182.247 356.631 182.508 357.846 182.508 359.25C182.508 360.654 182.247 361.878 181.725 362.922C181.221 363.966 180.519 364.776 179.619 365.352C178.737 365.91 177.702 366.189 176.514 366.189C175.47 366.189 174.561 365.973 173.787 365.541C173.031 365.109 172.446 364.587 172.032 363.975ZM178.782 359.25C178.782 358.116 178.485 357.207 177.891 356.523C177.315 355.821 176.559 355.47 175.623 355.47C175.047 355.47 174.516 355.623 174.03 355.929C173.562 356.217 173.184 356.64 172.896 357.198C172.608 357.738 172.464 358.422 172.464 359.25C172.464 360.06 172.608 360.744 172.896 361.302C173.184 361.86 173.562 362.292 174.03 362.598C174.516 362.886 175.047 363.03 175.623 363.03C176.559 363.03 177.315 362.688 177.891 362.004C178.485 361.302 178.782 360.384 178.782 359.25Z" fill="white"/>
<g clip-path="url(#clip11_598_643)">
<path d="M290.1 363.55L290 363.65L289.89 363.55C285.14 359.24 282 356.39 282 353.5C282 351.5 283.5 350 285.5 350C287.04 350 288.54 351 289.07 352.36H290.93C291.46 351 292.96 350 294.5 350C296.5 350 298 351.5 298 353.5C298 356.39 294.86 359.24 290.1 363.55ZM294.5 348C292.76 348 291.09 348.81 290 350.08C288.91 348.81 287.24 348 285.5 348C282.42 348 280 350.41 280 353.5C280 357.27 283.4 360.36 288.55 365.03L290 366.35L291.45 365.03C296.6 360.36 300 357.27 300 353.5C300 350.41 297.58 348 294.5 348Z" fill="#23FF53"/>
<path d="M290.1 363.55L290 363.65L289.89 363.55C285.14 359.24 282 356.39 282 353.5C282 351.5 283.5 350 285.5 350C287.04 350 288.54 351 289.07 352.36H290.93C291.46 351 292.96 350 294.5 350C296.5 350 298 351.5 298 353.5C298 356.39 294.86 359.24 290.1 363.55Z" fill="#23FF53"/>
</g>
</g>
<defs>
<clipPath id="clip0_598_643">
<rect y="59" width="325" height="54" rx="18" fill="white"/>
</clipPath>
<clipPath id="clip1_598_643">
<rect width="20" height="19" fill="white" transform="translate(280 78)"/>
</clipPath>
<clipPath id="clip2_598_643">
<rect y="113" width="325" height="54" rx="18" fill="white"/>
</clipPath>
<clipPath id="clip3_598_643">
<rect width="20" height="19" fill="white" transform="translate(280 132)"/>
</clipPath>
<clipPath id="clip4_598_643">
<rect y="167" width="325" height="54" rx="18" fill="white"/>
</clipPath>
<clipPath id="clip5_598_643">
<rect width="20" height="19" fill="white" transform="translate(280 186)"/>
</clipPath>
<clipPath id="clip6_598_643">
<rect y="221" width="325" height="54" rx="18" fill="white"/>
</clipPath>
<clipPath id="clip7_598_643">
<rect width="20" height="19" fill="white" transform="translate(280 240)"/>
</clipPath>
<clipPath id="clip8_598_643">
<rect y="275" width="325" height="54" rx="18" fill="white"/>
</clipPath>
<clipPath id="clip9_598_643">
<rect width="20" height="19" fill="white" transform="translate(280 294)"/>
</clipPath>
<clipPath id="clip10_598_643">
<rect y="329" width="325" height="54" rx="18" fill="white"/>
</clipPath>
<clipPath id="clip11_598_643">
<rect width="20" height="19" fill="white" transform="translate(280 348)"/>
</clipPath>
</defs>
</svg>
