<svg width="386" height="64" viewBox="0 0 386 64" fill="none" xmlns="http://www.w3.org/2000/svg">
<rect x="2" y="2" width="382" height="60" rx="16" fill="#FFFFF7"/>
<path d="M39.088 30.3C39.088 28.6147 39.376 27.0787 39.952 25.692C40.528 24.284 41.328 23.0787 42.352 22.076C43.376 21.052 44.5707 20.2627 45.936 19.708C47.3227 19.1533 48.816 18.876 50.416 18.876C52.72 18.876 54.7573 19.4307 56.528 20.54C58.32 21.628 59.664 23.196 60.56 25.244L56.944 26.3C56.4747 25.404 55.888 24.6787 55.184 24.124C54.5013 23.5693 53.7547 23.164 52.944 22.908C52.1333 22.652 51.312 22.524 50.48 22.524C49.1147 22.524 47.8987 22.8547 46.832 23.516C45.7653 24.156 44.9333 25.0627 44.336 26.236C43.76 27.4093 43.472 28.764 43.472 30.3C43.472 31.836 43.76 33.1907 44.336 34.364C44.9333 35.516 45.7653 36.4227 46.832 37.084C47.8987 37.7453 49.1147 38.076 50.48 38.076C51.3333 38.076 52.176 37.948 53.008 37.692C53.8613 37.4147 54.6507 36.956 55.376 36.316C56.1013 35.676 56.72 34.8227 57.232 33.756L60.784 34.748C59.8667 37.0733 58.5013 38.8227 56.688 39.996C54.8747 41.148 52.784 41.724 50.416 41.724C48.816 41.724 47.3227 41.4467 45.936 40.892C44.5707 40.3373 43.376 39.548 42.352 38.524C41.328 37.5 40.528 36.2947 39.952 34.908C39.376 33.5 39.088 31.964 39.088 30.3ZM62.4427 25.5H66.1547L66.4427 27.548C66.8907 26.9933 67.3921 26.5453 67.9468 26.204C68.5228 25.8413 69.1521 25.596 69.8348 25.468C70.5174 25.3187 71.2321 25.3293 71.9788 25.5V29.34C71.4028 29.148 70.7947 29.0947 70.1547 29.18C69.5361 29.2653 68.9494 29.4893 68.3948 29.852C67.8614 30.2147 67.4134 30.7373 67.0508 31.42C66.7094 32.0813 66.5388 32.924 66.5388 33.948V41.5H62.4427V25.5ZM79.7905 41.724C78.1905 41.724 76.7825 41.372 75.5665 40.668C74.3505 39.964 73.4012 38.9827 72.7185 37.724C72.0572 36.4653 71.7265 35.0147 71.7265 33.372C71.7265 31.7933 72.0572 30.396 72.7185 29.18C73.3798 27.964 74.2972 27.0147 75.4705 26.332C76.6652 25.628 78.0198 25.276 79.5345 25.276C81.0705 25.276 82.4252 25.6067 83.5985 26.268C84.7718 26.9293 85.6785 27.8573 86.3185 29.052C86.9798 30.2253 87.3105 31.6013 87.3105 33.18C87.3105 33.4147 87.2892 33.6813 87.2465 33.98C87.2252 34.2573 87.1932 34.556 87.1505 34.876H76.1425C76.2278 35.5587 76.4412 36.1453 76.7825 36.636C77.1452 37.1053 77.5825 37.4787 78.0945 37.756C78.6278 38.012 79.2252 38.14 79.8865 38.14C80.6758 38.14 81.3798 37.98 81.9985 37.66C82.6385 37.3187 83.0972 36.8813 83.3745 36.348L87.0225 37.436C86.3825 38.8013 85.4225 39.8573 84.1425 40.604C82.8838 41.3507 81.4332 41.724 79.7905 41.724ZM82.8305 31.9C82.8092 31.3027 82.6492 30.7693 82.3505 30.3C82.0518 29.8093 81.6572 29.436 81.1665 29.18C80.6758 28.9027 80.1318 28.764 79.5345 28.764C79.0012 28.764 78.4998 28.9027 78.0305 29.18C77.5612 29.4573 77.1558 29.8307 76.8145 30.3C76.4945 30.748 76.2812 31.2813 76.1745 31.9H82.8305ZM98.0808 41.5L97.7608 39.548C97.2274 40.2093 96.6194 40.732 95.9368 41.116C95.2754 41.5 94.3794 41.692 93.2488 41.692C92.1821 41.692 91.2434 41.5107 90.4328 41.148C89.6434 40.764 89.0248 40.2413 88.5768 39.58C88.1288 38.8973 87.9048 38.0973 87.9048 37.18C87.9048 35.836 88.3848 34.7267 89.3448 33.852C90.3261 32.956 91.7981 32.3907 93.7608 32.156L97.7608 31.708V30.588C97.7608 30.14 97.5581 29.724 97.1528 29.34C96.7474 28.956 96.1074 28.764 95.2328 28.764C94.4648 28.764 93.7928 28.956 93.2168 29.34C92.6621 29.7027 92.2888 30.2573 92.0968 31.004L88.5768 29.724C89.0034 28.2947 89.8141 27.196 91.0088 26.428C92.2034 25.66 93.6754 25.276 95.4248 25.276C97.5581 25.276 99.1581 25.8093 100.225 26.876C101.313 27.9213 101.857 29.308 101.857 31.036V41.5H98.0808ZM97.7608 34.556L94.3048 35.004C93.6008 35.0893 93.0674 35.3027 92.7048 35.644C92.3421 35.964 92.1608 36.3587 92.1608 36.828C92.1608 37.276 92.3421 37.66 92.7048 37.98C93.0674 38.2787 93.5794 38.428 94.2408 38.428C94.9874 38.428 95.6168 38.2893 96.1288 38.012C96.6621 37.7347 97.0674 37.3293 97.3448 36.796C97.6221 36.2627 97.7608 35.6013 97.7608 34.812V34.556ZM105.002 25.5V21.02H109.162V25.5H112.682V29.116H109.162V35.612C109.162 36.444 109.333 37.0307 109.674 37.372C110.037 37.7133 110.485 37.8947 111.018 37.916C111.573 37.9373 112.128 37.9053 112.682 37.82V41.34C111.701 41.5533 110.741 41.6173 109.802 41.532C108.885 41.4467 108.064 41.2013 107.338 40.796C106.613 40.3693 106.037 39.7293 105.61 38.876C105.205 38.0227 105.002 36.9347 105.002 35.612V29.116H102.73V25.5H105.002ZM121.104 41.724C119.504 41.724 118.096 41.372 116.88 40.668C115.664 39.964 114.715 38.9827 114.032 37.724C113.371 36.4653 113.04 35.0147 113.04 33.372C113.04 31.7933 113.371 30.396 114.032 29.18C114.694 27.964 115.611 27.0147 116.784 26.332C117.979 25.628 119.334 25.276 120.848 25.276C122.384 25.276 123.739 25.6067 124.912 26.268C126.086 26.9293 126.992 27.8573 127.632 29.052C128.294 30.2253 128.624 31.6013 128.624 33.18C128.624 33.4147 128.603 33.6813 128.56 33.98C128.539 34.2573 128.507 34.556 128.464 34.876H117.456C117.542 35.5587 117.755 36.1453 118.096 36.636C118.459 37.1053 118.896 37.4787 119.408 37.756C119.942 38.012 120.539 38.14 121.2 38.14C121.99 38.14 122.694 37.98 123.312 37.66C123.952 37.3187 124.411 36.8813 124.688 36.348L128.336 37.436C127.696 38.8013 126.736 39.8573 125.456 40.604C124.198 41.3507 122.747 41.724 121.104 41.724ZM124.144 31.9C124.123 31.3027 123.963 30.7693 123.664 30.3C123.366 29.8093 122.971 29.436 122.48 29.18C121.99 28.9027 121.446 28.764 120.848 28.764C120.315 28.764 119.814 28.9027 119.344 29.18C118.875 29.4573 118.47 29.8307 118.128 30.3C117.808 30.748 117.595 31.2813 117.488 31.9H124.144ZM146.603 41.5L146.283 39.548C145.75 40.2093 145.142 40.732 144.459 41.116C143.798 41.5 142.902 41.692 141.771 41.692C140.705 41.692 139.766 41.5107 138.955 41.148C138.166 40.764 137.547 40.2413 137.099 39.58C136.651 38.8973 136.427 38.0973 136.427 37.18C136.427 35.836 136.907 34.7267 137.867 33.852C138.849 32.956 140.321 32.3907 142.283 32.156L146.283 31.708V30.588C146.283 30.14 146.081 29.724 145.675 29.34C145.27 28.956 144.63 28.764 143.755 28.764C142.987 28.764 142.315 28.956 141.739 29.34C141.185 29.7027 140.811 30.2573 140.619 31.004L137.099 29.724C137.526 28.2947 138.337 27.196 139.531 26.428C140.726 25.66 142.198 25.276 143.947 25.276C146.081 25.276 147.681 25.8093 148.747 26.876C149.835 27.9213 150.379 29.308 150.379 31.036V41.5H146.603ZM146.283 34.556L142.827 35.004C142.123 35.0893 141.59 35.3027 141.227 35.644C140.865 35.964 140.683 36.3587 140.683 36.828C140.683 37.276 140.865 37.66 141.227 37.98C141.59 38.2787 142.102 38.428 142.763 38.428C143.51 38.428 144.139 38.2893 144.651 38.012C145.185 37.7347 145.59 37.3293 145.867 36.796C146.145 36.2627 146.283 35.6013 146.283 34.812V34.556ZM159.582 25.5H163.294L163.582 27.548C164.03 26.9933 164.531 26.5453 165.086 26.204C165.662 25.8413 166.291 25.596 166.974 25.468C167.656 25.3187 168.371 25.3293 169.118 25.5V29.34C168.542 29.148 167.934 29.0947 167.294 29.18C166.675 29.2653 166.088 29.4893 165.534 29.852C165 30.2147 164.552 30.7373 164.19 31.42C163.848 32.0813 163.678 32.924 163.678 33.948V41.5H159.582V25.5ZM176.929 41.724C175.372 41.724 173.985 41.3933 172.769 40.732C171.553 40.0493 170.593 39.1 169.889 37.884C169.207 36.6467 168.865 35.196 168.865 33.532C168.865 31.8467 169.217 30.3853 169.921 29.148C170.647 27.9107 171.628 26.9613 172.865 26.3C174.103 25.6173 175.489 25.276 177.025 25.276C178.561 25.276 179.948 25.6173 181.185 26.3C182.423 26.9613 183.404 27.9107 184.129 29.148C184.855 30.364 185.217 31.804 185.217 33.468C185.217 35.1533 184.844 36.6147 184.097 37.852C183.372 39.0893 182.38 40.0493 181.121 40.732C179.884 41.3933 178.487 41.724 176.929 41.724ZM176.897 38.044C177.559 38.044 178.188 37.884 178.785 37.564C179.383 37.2227 179.873 36.7213 180.257 36.06C180.641 35.3773 180.833 34.5133 180.833 33.468C180.833 32.4653 180.652 31.6333 180.289 30.972C179.927 30.2893 179.447 29.788 178.849 29.468C178.273 29.1267 177.644 28.956 176.961 28.956C176.3 28.956 175.681 29.1267 175.105 29.468C174.551 29.788 174.103 30.2893 173.761 30.972C173.441 31.6333 173.281 32.4867 173.281 33.532C173.281 34.5347 173.441 35.3773 173.761 36.06C174.081 36.7213 174.519 37.2227 175.073 37.564C175.628 37.884 176.236 38.044 176.897 38.044ZM193.633 41.724C192.075 41.724 190.71 41.3827 189.537 40.7C188.363 40.0173 187.446 39.068 186.785 37.852C186.123 36.6147 185.793 35.1853 185.793 33.564C185.793 31.9213 186.123 30.4813 186.785 29.244C187.446 28.0067 188.374 27.036 189.569 26.332C190.763 25.628 192.139 25.276 193.697 25.276C195.382 25.276 196.875 25.692 198.177 26.524C199.499 27.356 200.427 28.476 200.961 29.884L197.153 30.972C196.897 30.3533 196.47 29.8627 195.873 29.5C195.297 29.1373 194.635 28.956 193.889 28.956C193.142 28.956 192.481 29.148 191.905 29.532C191.35 29.916 190.913 30.4493 190.593 31.132C190.294 31.8147 190.145 32.6147 190.145 33.532C190.145 34.9187 190.486 36.0173 191.169 36.828C191.851 37.6387 192.769 38.044 193.921 38.044C194.646 38.044 195.307 37.8733 195.905 37.532C196.502 37.1693 196.95 36.6787 197.249 36.06L201.025 37.148C200.449 38.5347 199.489 39.644 198.145 40.476C196.822 41.308 195.318 41.724 193.633 41.724ZM202.395 18.46H206.523V31.74H207.547L212.827 25.5H218.203L211.131 33.436L218.235 41.5H212.859L207.515 35.164H206.523V41.5H202.395V18.46ZM229.616 39.1L230.128 39.036V47.9H226.032V25.5H229.744L230 27.484C230.469 26.8653 231.13 26.3427 231.984 25.916C232.837 25.4893 233.818 25.276 234.928 25.276C236.314 25.276 237.541 25.6173 238.608 26.3C239.674 26.9827 240.506 27.9427 241.104 29.18C241.722 30.396 242.032 31.836 242.032 33.5C242.032 35.164 241.722 36.6147 241.104 37.852C240.506 39.0893 239.674 40.0493 238.608 40.732C237.562 41.3933 236.336 41.724 234.928 41.724C233.69 41.724 232.613 41.468 231.696 40.956C230.8 40.444 230.106 39.8253 229.616 39.1ZM237.616 33.5C237.616 32.156 237.264 31.0787 236.56 30.268C235.877 29.436 234.981 29.02 233.872 29.02C233.189 29.02 232.56 29.2013 231.984 29.564C231.429 29.9053 230.981 30.4067 230.64 31.068C230.298 31.708 230.128 32.5187 230.128 33.5C230.128 34.46 230.298 35.2707 230.64 35.932C230.981 36.5933 231.429 37.1053 231.984 37.468C232.56 37.8093 233.189 37.98 233.872 37.98C234.981 37.98 235.877 37.5747 236.56 36.764C237.264 35.932 237.616 34.844 237.616 33.5ZM243.397 18.46H247.493V41.5H243.397V18.46ZM259.076 41.5L258.756 39.548C258.222 40.2093 257.614 40.732 256.932 41.116C256.27 41.5 255.374 41.692 254.244 41.692C253.177 41.692 252.238 41.5107 251.428 41.148C250.638 40.764 250.02 40.2413 249.572 39.58C249.124 38.8973 248.9 38.0973 248.9 37.18C248.9 35.836 249.38 34.7267 250.34 33.852C251.321 32.956 252.793 32.3907 254.756 32.156L258.756 31.708V30.588C258.756 30.14 258.553 29.724 258.148 29.34C257.742 28.956 257.102 28.764 256.228 28.764C255.46 28.764 254.788 28.956 254.212 29.34C253.657 29.7027 253.284 30.2573 253.092 31.004L249.572 29.724C249.998 28.2947 250.809 27.196 252.004 26.428C253.198 25.66 254.67 25.276 256.42 25.276C258.553 25.276 260.153 25.8093 261.22 26.876C262.308 27.9213 262.852 29.308 262.852 31.036V41.5H259.076ZM258.756 34.556L255.3 35.004C254.596 35.0893 254.062 35.3027 253.7 35.644C253.337 35.964 253.156 36.3587 253.156 36.828C253.156 37.276 253.337 37.66 253.7 37.98C254.062 38.2787 254.574 38.428 255.236 38.428C255.982 38.428 256.612 38.2893 257.124 38.012C257.657 37.7347 258.062 37.3293 258.34 36.796C258.617 36.2627 258.756 35.6013 258.756 34.812V34.556ZM275.259 25.5H279.643L270.203 47.9H266.075L269.083 40.924L262.779 25.5H267.355L271.259 36.028L275.259 25.5ZM280.335 18.46H284.431V41.5H280.335V18.46ZM287.15 25.5H291.246V41.5H287.15V25.5ZM289.23 23.452C288.462 23.452 287.833 23.2173 287.342 22.748C286.852 22.2573 286.606 21.66 286.606 20.956C286.606 20.252 286.852 19.6653 287.342 19.196C287.833 18.7053 288.462 18.46 289.23 18.46C289.956 18.46 290.564 18.7053 291.054 19.196C291.566 19.6653 291.822 20.252 291.822 20.956C291.822 21.66 291.566 22.2573 291.054 22.748C290.564 23.2173 289.956 23.452 289.23 23.452ZM296.852 36.284C296.98 36.8173 297.193 37.2227 297.492 37.5C297.812 37.7773 298.164 37.98 298.548 38.108C298.953 38.2147 299.358 38.268 299.764 38.268C300.51 38.268 301.097 38.1293 301.524 37.852C301.95 37.5533 302.164 37.18 302.164 36.732C302.164 36.348 302.014 36.0493 301.716 35.836C301.417 35.6013 301.033 35.4307 300.564 35.324C300.094 35.196 299.614 35.068 299.124 34.94C298.548 34.7907 297.929 34.6307 297.268 34.46C296.628 34.268 296.02 34.0013 295.444 33.66C294.868 33.3187 294.388 32.8813 294.004 32.348C293.62 31.7933 293.428 31.1 293.428 30.268C293.428 29.2867 293.694 28.4227 294.228 27.676C294.782 26.9293 295.54 26.3427 296.5 25.916C297.481 25.4893 298.612 25.276 299.892 25.276C301.406 25.276 302.686 25.596 303.732 26.236C304.777 26.876 305.534 27.7933 306.004 28.988L302.388 30.012C302.281 29.7133 302.1 29.468 301.844 29.276C301.588 29.084 301.278 28.9453 300.916 28.86C300.574 28.7747 300.222 28.732 299.86 28.732C299.241 28.732 298.729 28.86 298.324 29.116C297.918 29.3507 297.716 29.6813 297.716 30.108C297.716 30.364 297.79 30.5773 297.94 30.748C298.089 30.8973 298.292 31.0253 298.548 31.132C298.825 31.2387 299.134 31.3347 299.476 31.42C299.838 31.5053 300.233 31.6013 300.66 31.708C301.321 31.8787 301.982 32.0813 302.644 32.316C303.326 32.5293 303.945 32.8067 304.5 33.148C305.076 33.4893 305.534 33.948 305.876 34.524C306.217 35.1 306.409 35.8253 306.452 36.7C306.452 37.6387 306.185 38.492 305.652 39.26C305.118 40.0067 304.35 40.604 303.348 41.052C302.345 41.5 301.129 41.724 299.7 41.724C298.036 41.724 296.617 41.372 295.444 40.668C294.292 39.964 293.534 38.8653 293.172 37.372L296.852 36.284ZM308.989 25.5V21.02H313.149V25.5H316.669V29.116H313.149V35.612C313.149 36.444 313.319 37.0307 313.661 37.372C314.023 37.7133 314.471 37.8947 315.005 37.916C315.559 37.9373 316.114 37.9053 316.669 37.82V41.34C315.687 41.5533 314.727 41.6173 313.789 41.532C312.871 41.4467 312.05 41.2013 311.325 40.796C310.599 40.3693 310.023 39.7293 309.597 38.876C309.191 38.0227 308.989 36.9347 308.989 35.612V29.116H306.717V25.5H308.989Z" fill="black"/>
<rect x="2" y="2" width="382" height="60" rx="16" stroke="#050013" stroke-width="4"/>
</svg>
