<svg width="96" height="21" viewBox="0 0 96 21" fill="none" xmlns="http://www.w3.org/2000/svg">
<g clip-path="url(#clip0_588_134)">
<path d="M63.6531 0.511963H80.2004V3.597H73.6363V19.8269H70.3539V3.597H63.6531V0.511963Z" fill="white"/>
<path d="M36.4389 0.511963V3.597H23.1751V8.55987H33.8419V11.6449H23.1751V16.7419H36.4389V19.8269H19.893V3.597H19.8916V0.511963H36.4389Z" fill="white"/>
<path d="M44.7015 0.52002H40.4062L55.7909 19.835H60.0987L52.4054 10.1842L60.0864 0.534756L55.7909 0.541461L50.2549 7.48642L44.7015 0.52002Z" fill="white"/>
<path d="M49.1091 14.3168L46.9581 11.6154L40.394 19.8497H44.7015L49.1091 14.3168Z" fill="white"/>
<path fill-rule="evenodd" clip-rule="evenodd" d="M20.008 19.8269L4.60263 0.503906H0.5V19.8189H3.78211V4.63247L15.8849 19.8269H20.008Z" fill="white"/>
<path d="M80.9382 19.709C80.6978 19.709 80.4934 19.6249 80.3222 19.4567C80.151 19.2885 80.0664 19.0848 80.0685 18.8436C80.0664 18.6089 80.151 18.4075 80.3222 18.2393C80.4934 18.0711 80.6978 17.9869 80.9382 17.9869C81.1695 17.9869 81.3718 18.0711 81.5429 18.2393C81.7166 18.4075 81.8031 18.6089 81.8055 18.8436C81.8031 19.0029 81.7631 19.149 81.683 19.2796C81.6008 19.4124 81.4964 19.5165 81.365 19.5917C81.236 19.6692 81.0937 19.709 80.9382 19.709Z" fill="white"/>
<path d="M86.5401 11.5721H87.9945V17.2321C87.9923 17.7523 87.8809 18.1972 87.6632 18.5713C87.4431 18.9453 87.1383 19.2308 86.747 19.4323C86.3578 19.6315 85.9019 19.7333 85.3837 19.7333C84.9099 19.7333 84.4853 19.647 84.1072 19.4788C83.7292 19.3106 83.429 19.0582 83.2088 18.7262C82.9863 18.3942 82.8773 17.9802 82.8773 17.4844H84.3341C84.3363 17.7014 84.3852 17.8895 84.4786 18.0466C84.5719 18.2038 84.7009 18.3233 84.8655 18.4074C85.0321 18.4915 85.2236 18.5336 85.4392 18.5336C85.6728 18.5336 85.8729 18.4849 86.0352 18.3853C86.1975 18.2879 86.3221 18.1418 86.4089 17.947C86.4933 17.7545 86.5379 17.5154 86.5401 17.2321V11.5721Z" fill="white"/>
<path d="M93.9788 13.7857C93.9434 13.4426 93.7876 13.1748 93.5163 12.9844C93.2427 12.7918 92.8892 12.6967 92.4554 12.6967C92.1509 12.6967 91.8886 12.7432 91.6706 12.8339C91.4526 12.9269 91.2836 13.0508 91.1679 13.208C91.0524 13.3651 90.9945 13.5444 90.9899 13.7459C90.9899 13.9141 91.0299 14.0602 91.1078 14.1819C91.1857 14.3059 91.2901 14.4099 91.4259 14.494C91.5592 14.5804 91.7082 14.6512 91.8707 14.7087C92.0352 14.7663 92.1998 14.815 92.3643 14.8548L93.1226 15.043C93.4274 15.1138 93.7232 15.209 94.0056 15.3307C94.2879 15.4503 94.5437 15.603 94.7682 15.7867C94.9929 15.9704 95.1709 16.1918 95.3021 16.4508C95.4332 16.7097 95.5 17.013 95.5 17.3627C95.5 17.8342 95.3799 18.2481 95.1374 18.6067C94.895 18.9631 94.5459 19.242 94.0878 19.4434C93.6318 19.6426 93.0804 19.7445 92.4311 19.7445C91.8039 19.7445 91.2568 19.6471 90.7965 19.4523C90.3341 19.2597 89.9736 18.9764 89.7135 18.6045C89.4533 18.2326 89.3132 17.7789 89.2932 17.2454H90.7343C90.7543 17.5243 90.8433 17.7567 90.9945 17.9449C91.1479 18.1308 91.348 18.2681 91.5927 18.361C91.8396 18.4518 92.1152 18.4983 92.42 18.4983C92.738 18.4983 93.0182 18.4495 93.2605 18.3544C93.5007 18.2592 93.6897 18.1264 93.8255 17.9537C93.9634 17.7833 94.0323 17.5819 94.0345 17.3517C94.0323 17.1414 93.9699 16.9665 93.8498 16.8293C93.7276 16.692 93.5585 16.5769 93.3427 16.484C93.125 16.391 92.8714 16.3069 92.5823 16.2338L91.6617 15.9992C90.9967 15.8288 90.4696 15.5698 90.0848 15.2223C89.698 14.8748 89.5066 14.4144 89.5066 13.8366C89.5066 13.3629 89.6356 12.9468 89.896 12.5904C90.1537 12.2341 90.5074 11.9574 90.9545 11.7604C91.4037 11.5612 91.9107 11.4637 92.4754 11.4637C93.0493 11.4637 93.5518 11.5612 93.9856 11.7604C94.4191 11.9574 94.7595 12.2319 95.0062 12.5816C95.2531 12.9313 95.3821 13.3319 95.3889 13.7857H93.9788Z" fill="white"/>
</g>
<defs>
<clipPath id="clip0_588_134">
<rect width="95" height="19.8693" fill="white" transform="translate(0.5 0.5)"/>
</clipPath>
</defs>
</svg>
