<svg width="96" height="25" viewBox="0 0 96 25" fill="none" xmlns="http://www.w3.org/2000/svg">
<g clip-path="url(#clip0_588_132)">
<path d="M56.6458 9.68051V9.68845C56.5984 9.68845 56.5508 9.69637 56.5033 9.69637C56.4559 9.69637 56.4083 9.68845 56.3609 9.68845C53.5347 9.68845 51.7851 11.4704 51.7851 14.3308V15.737C51.7851 18.4935 53.5585 20.2035 56.4004 20.2035C56.4586 20.205 56.5168 20.2024 56.5746 20.1956C56.6142 20.1956 56.6459 20.2035 56.6854 20.2035C58.5932 20.2035 59.9234 19.5005 60.7702 18.0461L59.0841 17.0632C58.5219 17.902 57.7699 18.5334 56.6933 18.5334C55.2526 18.5334 54.3897 17.6385 54.3897 16.1283V15.7288H61.0712V14.0669C61.0712 11.3982 59.3376 9.68023 56.6459 9.68023L56.6458 9.68051ZM56.5033 11.3187C57.8176 11.3826 58.6091 12.2614 58.6091 13.7076V14.1071H54.3818V13.8752C54.3818 12.2773 55.1339 11.3823 56.5033 11.3184L56.5033 11.3187ZM46.125 9.68845C44.8663 9.68845 43.7819 10.2159 43.2119 11.0947L43.0694 11.3184V9.92796H40.6785V23.4234H43.188V18.7095L43.3305 18.9252C43.8688 19.7321 44.9218 20.2114 46.1488 20.2114H46.2674C48.3337 20.2114 50.4157 18.853 50.4157 15.8089V14.0992C50.4157 11.9098 49.1332 9.69666 46.2515 9.69666L46.2358 9.68873H46.1805L46.125 9.68845ZM45.5392 11.5902C46.9959 11.6142 47.8983 12.6128 47.8983 14.211V15.681C47.8983 17.2789 46.9878 18.2698 45.5154 18.3018C44.1459 18.2777 43.188 17.2231 43.188 15.7209V14.2107C43.188 12.6926 44.1538 11.6219 45.5392 11.5899V11.5902ZM78.0601 6.35669L73.2311 19.9719H75.9464L76.8727 17.0555H82.1449V17.0875L83.0712 19.9799H85.7865L80.9496 6.36462H80.6646L80.6568 6.35669L78.0601 6.35669ZM79.5011 8.69781L81.5196 15.13H77.4662L79.5011 8.69781ZM95.5001 8.27426V6.35669H87.2194V8.27426H90.1246V18.0382H87.2194V19.9558H95.5001V18.0382H92.5948V8.27426H95.5001ZM68.2514 9.68872H68.1406C66.7395 9.68872 65.742 10.1681 65.2511 11.0871L65.1007 11.3668V9.92853H62.7099V19.964H65.2194V13.9873C65.2194 12.5811 65.9714 11.7742 67.2696 11.7501C68.5126 11.7742 69.2251 12.5652 69.2251 13.9316V19.964H71.7345V13.4998C71.7345 11.1108 70.4363 9.68844 68.2593 9.68844L68.2514 9.68872ZM32.6113 6.07697C28.9141 6.07697 26.6106 8.40223 26.6106 12.1496V14.1711C26.6106 17.9185 28.9063 20.2434 32.6113 20.2434H32.7221C36.4192 20.2434 38.7228 17.9185 38.7228 14.1711V12.1496C38.7228 8.40223 36.4192 6.07697 32.7221 6.07697H32.6113ZM32.6668 8.10666C34.8677 8.13072 36.1342 9.55283 36.1342 12.0137V14.3149C36.1342 16.7758 34.8677 18.1982 32.6668 18.222C30.4659 18.1979 29.1991 16.7758 29.1991 14.3149V12.0137C29.1991 9.55283 30.4659 8.13043 32.6668 8.10666ZM10.8094 0.500068C9.56224 0.500149 8.34707 0.898155 7.33754 1.63719C6.32802 2.37623 5.57582 3.41847 5.18847 4.61493C4.17346 4.83106 3.2328 5.31331 2.46121 6.0131C1.68962 6.7129 1.11434 7.60554 0.793305 8.60113C0.472272 9.59673 0.41682 10.6601 0.632533 11.6842C0.848247 12.7083 1.32751 13.657 2.02206 14.4347C1.75976 15.2272 1.66856 16.0672 1.75458 16.8982C1.84061 17.7293 2.10187 18.5321 2.52081 19.2528C3.14303 20.3464 4.09296 21.2125 5.23388 21.7265C6.37481 22.2405 7.64789 22.3759 8.86991 22.1132C9.41941 22.7391 10.0948 23.2396 10.8511 23.5813C11.6074 23.923 12.4271 24.098 13.2557 24.0947C14.5028 24.0946 15.718 23.6966 16.7275 22.9576C17.737 22.2186 18.4892 21.1763 18.8766 19.9799C19.6886 19.8117 20.4555 19.4701 21.1259 18.9781C21.7964 18.4862 22.3548 17.8551 22.7637 17.1274C23.3922 16.0394 23.6612 14.7776 23.5317 13.525C23.4021 12.2723 22.8808 11.0938 22.0433 10.1601V10.1522C22.3053 9.35832 22.3964 8.5171 22.3104 7.68482C22.2244 6.85254 21.9633 6.04839 21.5445 5.32616C20.9215 4.23563 19.9723 3.37223 18.8331 2.85975C17.6938 2.34728 16.4231 2.21204 15.203 2.47345C14.651 1.84913 13.9738 1.35035 13.2163 1.01014C12.4589 0.66993 11.6384 0.496067 10.8094 0.500068ZM10.8094 2.03429L10.8015 2.04222C11.828 2.04093 12.8225 2.40289 13.612 3.06514C13.5803 3.08099 13.5169 3.12091 13.4695 3.14497L8.81464 5.85358C8.69794 5.92133 8.60121 6.01923 8.53441 6.1372C8.46761 6.25518 8.43314 6.38899 8.43455 6.52486V12.8849L6.43169 11.7184V6.46088C6.43124 5.28813 6.89205 4.16317 7.71288 3.33312C8.5337 2.50306 9.64742 2.03582 10.8094 2.03401V2.03429ZM16.4168 3.88588C17.0557 3.8848 17.6872 4.02471 18.2669 4.29582C18.8467 4.56694 19.3607 4.9627 19.773 5.45538C20.1852 5.94807 20.4858 6.52576 20.6536 7.14801C20.8215 7.77027 20.8525 8.42202 20.7445 9.05764C20.7128 9.03357 20.6497 9.00186 20.6098 8.9778L15.9551 6.261C15.838 6.19416 15.7057 6.15903 15.5712 6.15903C15.4367 6.15903 15.3044 6.19416 15.1873 6.261L9.73275 9.441V7.1078L14.2372 4.47903C14.8995 4.09149 15.6513 3.88683 16.4168 3.88562L16.4168 3.88588ZM4.90374 6.30095V11.886C4.90329 12.0217 4.93817 12.1552 5.00487 12.273C5.07158 12.3908 5.16778 12.4889 5.28384 12.5573L10.7303 15.7294L8.71926 16.9038L4.22266 14.2829C3.50266 13.8613 2.91638 13.2417 2.5323 12.4963C2.14821 11.7509 1.98218 10.9107 2.0536 10.0736C2.12502 9.2366 2.43094 8.43736 2.93563 7.76925C3.44031 7.10115 4.12293 6.59177 4.90374 6.30062V6.30095ZM15.3377 7.68311L19.8421 10.3039C20.3405 10.5942 20.7773 10.9808 21.1274 11.4417C21.4776 11.9025 21.7343 12.4285 21.8828 12.9896C22.0313 13.5507 22.0687 14.1358 21.9929 14.7115C21.9171 15.2872 21.7296 15.8421 21.441 16.3446L21.4489 16.3525C20.9367 17.2467 20.1298 17.931 19.1689 18.2862V12.7008C19.1703 12.565 19.1359 12.4312 19.0691 12.3133C19.0023 12.1953 18.9055 12.0975 18.7888 12.0298L13.3345 8.84956L15.3377 7.68311ZM12.0285 9.60892L14.3245 10.9512V13.6278L12.0285 14.97L9.73275 13.6278V10.9512L12.0285 9.60892ZM15.6384 11.7185L17.6412 12.8849V18.1345C17.6418 19.3073 17.181 20.4323 16.3602 21.2623C15.5393 22.0923 14.4255 22.5595 13.2636 22.5611V22.5532C12.2395 22.5544 11.2475 22.1924 10.461 21.5305C10.4927 21.5147 10.5639 21.4745 10.6035 21.4504L15.2583 18.7417C15.3761 18.6753 15.4738 18.5777 15.5407 18.4594C15.6076 18.3411 15.6413 18.2066 15.6381 18.0705L15.6384 11.7185ZM14.332 15.1541V17.487L9.82758 20.1079C8.82126 20.6922 7.62656 20.8505 6.5049 20.548C5.38325 20.2455 4.42599 19.5069 3.84258 18.4938H3.85043C3.33699 17.6011 3.15193 16.5543 3.3278 15.5374C3.3595 15.5615 3.42289 15.5932 3.46244 15.6173L8.11726 18.3341C8.23436 18.4009 8.36661 18.4361 8.50114 18.4361C8.63567 18.4361 8.76791 18.4009 8.88502 18.3341L14.332 15.1541Z" fill="white"/>
</g>
<defs>
<clipPath id="clip0_588_132">
<rect width="95" height="23.5948" fill="white" transform="translate(0.5 0.5)"/>
</clipPath>
</defs>
</svg>
