<svg width="96" height="31" viewBox="0 0 96 31" fill="none" xmlns="http://www.w3.org/2000/svg">
<g clip-path="url(#clip0_588_143)">
<path d="M15.2622 0.500854C7.10908 0.500854 0.5 7.17215 0.5 15.4022C0.5 23.6318 7.10908 30.3034 15.2622 30.3034C23.4152 30.3034 30.0243 23.6318 30.0243 15.4022C30.0243 7.17215 23.4152 0.500854 15.2622 0.500854ZM21.9866 22.0343C21.9187 22.1425 21.8304 22.2361 21.7267 22.3098C21.6229 22.3835 21.5057 22.4358 21.3819 22.4636C21.2581 22.4915 21.13 22.4944 21.0051 22.4722C20.8802 22.45 20.7608 22.4031 20.6539 22.3342C18.1568 20.7311 15.3157 20.2705 12.9193 20.2716C10.3549 20.27 8.32729 20.7996 7.90108 20.9221C7.84012 20.9394 7.8186 20.9463 7.8186 20.9463H7.81915C7.57442 21.0225 7.30973 20.9974 7.08332 20.8766C6.85691 20.7558 6.68731 20.5492 6.61184 20.3021C6.53638 20.0551 6.56122 19.7879 6.68091 19.5594C6.80059 19.3308 7.00532 19.1596 7.25005 19.0835C7.30853 19.0668 9.69252 18.3238 12.9195 18.3224C15.5499 18.3236 18.7667 18.8181 21.6897 20.6896C21.9057 20.8283 22.0582 21.0478 22.1139 21.2999C22.1695 21.5521 22.1237 21.8162 21.9866 22.0343ZM23.9035 17.912C23.8253 18.0459 23.7216 18.1628 23.5985 18.2562C23.4754 18.3496 23.3353 18.4176 23.1862 18.4563C23.037 18.495 22.8818 18.5036 22.7294 18.4817C22.5769 18.4598 22.4302 18.4077 22.2977 18.3286C19.0001 16.3601 15.6026 15.8255 12.8837 15.8249C10.1306 15.8241 8.09336 16.3788 7.68039 16.5024C7.62136 16.5197 7.60536 16.5253 7.60536 16.5253C7.31093 16.6169 6.9926 16.5879 6.71918 16.4445C6.44577 16.3012 6.23924 16.0549 6.14424 15.7591C6.04925 15.4632 6.07342 15.1415 6.21154 14.8635C6.34965 14.5855 6.59061 14.3735 6.88233 14.2734C6.96067 14.2494 9.38384 13.46 12.8834 13.4583C15.8997 13.4578 19.7383 14.052 23.4908 16.2911C23.7585 16.4508 23.9523 16.7113 24.0297 17.0153C24.1071 17.3192 24.0617 17.6418 23.9035 17.912ZM24.8072 13.9969C24.5728 13.9969 24.3352 13.9376 24.1168 13.8131C20.4445 11.7174 16.5438 11.1304 13.3582 11.131C10.0189 11.1299 7.49281 11.779 6.97281 11.9251C6.89833 11.9463 6.87626 11.9533 6.87626 11.9533C6.69956 12.0077 6.51397 12.0265 6.33009 12.0085C6.14621 11.9905 5.96764 11.9361 5.80458 11.8485C5.64152 11.7608 5.49717 11.6416 5.37978 11.4976C5.26238 11.3536 5.17425 11.1877 5.1204 11.0093C5.06646 10.8309 5.04786 10.6435 5.06566 10.4579C5.08347 10.2722 5.13733 10.0919 5.22417 9.9273C5.31101 9.76266 5.42913 9.6169 5.57178 9.49835C5.71444 9.3798 5.87883 9.29077 6.05557 9.23636C6.14412 9.21102 9.13391 8.2935 13.3582 8.29099C16.8754 8.29155 21.2729 8.93228 25.5005 11.3401C25.7715 11.4943 25.9842 11.7348 26.1054 12.0241C26.2265 12.3133 26.2493 12.635 26.17 12.9387C26.0908 13.2423 25.9141 13.5109 25.6675 13.7024C25.4209 13.8939 25.1183 13.9974 24.8072 13.9969ZM51.7992 11.6506C49.1713 11.6506 47.144 14.0815 47.144 17.0805C47.144 20.0792 48.9716 22.5104 51.7992 22.5104C54.427 22.5104 56.5578 20.0792 56.5578 17.0805C56.5578 14.0815 54.4273 11.6506 51.7992 11.6506ZM51.1959 20.1436C49.6381 20.1436 48.4543 18.7721 48.4543 17.0805C48.4543 15.3889 49.6378 14.0175 51.1959 14.0175C52.8789 14.0175 53.9374 15.3889 53.9374 17.0805C53.9374 18.7721 52.8229 20.1436 51.1959 20.1436Z" fill="white"/>
<path d="M45.92 11.894H48.5407V13.8956L47.9545 15.8448V18.5597L48.5578 20.8047V25.382H45.9026L45.92 11.894ZM62.7646 11.6387C59.7431 11.6387 57.2935 14.0696 57.2935 17.0686C57.2935 20.0676 59.7431 22.4985 62.7646 22.4985C65.7861 22.4985 68.2358 20.0676 68.2358 17.0686C68.2358 14.0696 65.7864 11.6387 62.7646 11.6387ZM62.7533 20.2013C61.1473 20.2013 59.8452 18.809 59.8452 17.0917C59.8452 15.3747 61.1473 13.9825 62.7533 13.9825C64.3591 13.9825 65.6612 15.3747 65.6612 17.0917C65.6612 18.809 64.3594 20.2013 62.7533 20.2013ZM76.006 11.8709H78.6725V22.3362H76.006V11.8709Z" fill="white"/>
<path d="M77.3853 10.5713C78.2866 10.5713 79.0173 9.83378 79.0173 8.92397C79.0173 8.01416 78.2866 7.27661 77.3853 7.27661C76.484 7.27661 75.7533 8.01416 75.7533 8.92397C75.7533 9.83378 76.484 10.5713 77.3853 10.5713Z" fill="white"/>
<path d="M83.6148 11.3605V22.3017H80.9483V11.6529C80.9483 11.6529 80.7116 7.80297 84.2818 7.87955C84.2818 7.87955 85.3389 7.90266 86.1897 8.22762V10.4737C86.1897 10.4737 85.5237 10.208 84.6266 10.2002C84.6266 10.2002 83.601 10.1668 83.6148 11.3605ZM72.3163 19.0159V9.13205H69.6499V19.4016C69.6499 19.4016 69.4499 22.6801 72.9834 22.4618C72.9834 22.4618 74.0041 22.4618 74.8912 21.8949V19.7162C74.8912 19.7162 74.2253 20.1033 73.3282 20.1108C73.3282 20.1108 72.2785 20.1389 72.3163 19.0159Z" fill="white"/>
<path d="M92.7668 11.871L90.3047 19.0644L87.5651 11.871H79.7298V14.1914H85.7069L88.9944 22.0347C88.7201 23.2181 87.7759 23.1485 87.7759 23.1485C87.1091 23.1485 86.3737 22.6843 86.3737 22.6843L85.4771 24.6335C86.1974 25.3099 87.9599 25.3993 87.9599 25.3993C90.5806 25.3993 91.3392 22.8005 91.3392 22.8005L95.5 11.871H92.7668ZM68.4043 11.8771H74.9627V14.1961H68.4043V11.8771ZM43.2475 12.2191C43.2475 12.2191 41.5233 10.8268 39.6842 10.8268C39.6842 10.8268 37.8226 10.7296 37.7302 12.1494C37.7302 12.1494 37.6353 13.3474 38.9865 13.6904C38.9865 13.6904 42.2993 14.6862 43.1316 15.0941C43.1316 15.0941 45.1622 15.9526 45.0406 18.6005C45.0406 18.6005 45.0549 22.4513 40.0979 22.4989C40.0979 22.4989 36.6957 22.5919 34.4199 20.1554L36.029 18.322C36.029 18.322 37.8221 20.0858 40.2359 20.0858C40.2359 20.0858 42.1619 20.1506 42.3738 18.6935C42.3738 18.6935 42.6146 17.402 40.7876 16.9762C40.7876 16.9762 37.96 16.257 37.0406 15.7928C37.0406 15.7928 34.9382 15.0284 35.0177 12.2889C35.0177 12.2889 35.1162 8.34821 39.8453 8.41365C39.8453 8.41365 42.5823 8.32343 44.6728 10.2236L43.2475 12.2191Z" fill="white"/>
</g>
<defs>
<clipPath id="clip0_588_143">
<rect width="95" height="29.8039" fill="white" transform="translate(0.5 0.5)"/>
</clipPath>
</defs>
</svg>
