<svg width="96" height="23" viewBox="0 0 96 23" fill="none" xmlns="http://www.w3.org/2000/svg">
<g clip-path="url(#clip0_588_130)">
<path d="M47.8925 5.93393C44.1828 5.93393 41.5081 8.37848 41.5081 12.0453C41.5081 15.7121 44.5188 18.1567 48.2285 18.1567C50.4698 18.1567 52.4456 17.2604 53.6687 15.7495L51.0981 14.2488C50.4194 14.9992 49.3878 15.4371 48.2285 15.4371C46.6189 15.4371 45.2513 14.5883 44.744 13.2302H54.1593C54.2332 12.85 54.2769 12.4561 54.2769 12.0419C54.2769 8.37848 51.6021 5.93393 47.8925 5.93393ZM44.7137 10.857C45.1337 9.5023 46.2829 8.6501 47.8891 8.6501C49.4987 8.6501 50.6479 9.5023 51.0645 10.857H44.7137ZM84.0753 5.93393C80.3656 5.93393 77.6909 8.37848 77.6909 12.0453C77.6909 15.7121 80.7016 18.1567 84.4113 18.1567C86.6526 18.1567 88.6284 17.2604 89.8515 15.7495L87.2809 14.2488C86.6022 14.9992 85.5706 15.4371 84.4113 15.4371C82.8018 15.4371 81.4341 14.5883 80.9268 13.2302H90.3421C90.416 12.85 90.4597 12.4561 90.4597 12.0419C90.4597 8.37848 87.785 5.93393 84.0753 5.93393ZM80.8999 10.857C81.3199 9.5023 82.4691 8.6501 84.0753 8.6501C85.6848 8.6501 86.834 9.5023 87.2507 10.857H80.8999ZM67.785 12.0453C67.785 14.0824 69.1022 15.4405 71.1452 15.4405C72.5296 15.4405 73.5679 14.8056 74.1021 13.7701L76.6828 15.2742C75.6143 17.0736 73.6116 18.1567 71.1452 18.1567C67.4321 18.1567 64.7608 15.7121 64.7608 12.0453C64.7608 8.37848 67.4355 5.93393 71.1452 5.93393C73.6116 5.93393 75.6109 7.017 76.6828 8.81647L74.1021 10.3205C73.5679 9.28501 72.5296 8.6501 71.1452 8.6501C69.1055 8.6501 67.785 10.0082 67.785 12.0453ZM95.5 2.19919V17.8172H92.4758V2.19919H95.5ZM12.916 0.501587L25.332 22.231H0.5L12.916 0.501587ZM43.9577 2.19919L34.6465 18.4962L25.3354 2.19919H28.8266L34.6465 12.3848L40.4664 2.19919H43.9577ZM63.7527 6.27345V9.56341C63.4167 9.46495 63.0605 9.39705 62.6774 9.39705C60.7251 9.39705 59.3172 10.7551 59.3172 12.7923V17.8172H56.293V6.27345H59.3172V9.39705C59.3172 7.67228 61.3031 6.27345 63.7527 6.27345Z" fill="white"/>
</g>
<defs>
<clipPath id="clip0_588_130">
<rect width="95" height="21.732" fill="white" transform="translate(0.5 0.5)"/>
</clipPath>
</defs>
</svg>
